<svg width="327" height="150" viewBox="0 0 327 150" fill="none" xmlns="http://www.w3.org/2000/svg">
<g clip-path="url(#clip0_360_951)">
<rect width="327" height="150" rx="20" fill="#002055"/>
<g filter="url(#filter0_f_360_951)">
<circle cx="85" cy="150" r="37" fill="#4BDFFF"/>
</g>
<g filter="url(#filter1_f_360_951)">
<circle cx="233.5" cy="7.5" r="38.5" fill="#3580FF"/>
</g>
<rect x="272.5" y="12.5" width="33" height="33" rx="7.5" fill="#002055" fill-opacity="0.85" stroke="white"/>
<g clip-path="url(#clip1_360_951)">
<path d="M293.209 29.7788H290.492C289.748 29.7788 289.143 30.3836 289.143 31.1274V33.2116C289.143 33.9554 289.748 34.5602 290.492 34.5602H293.209C293.953 34.5602 294.558 33.9554 294.558 33.2116V31.1274C294.558 30.3836 293.953 29.7788 293.209 29.7788ZM293.577 33.2116C293.577 33.4159 293.41 33.5794 293.209 33.5794H290.492C290.287 33.5794 290.124 33.4118 290.124 33.2116V31.1274C290.124 30.9231 290.291 30.7596 290.492 30.7596H293.209C293.414 30.7596 293.577 30.9272 293.577 31.1274V33.2116Z" fill="white"/>
<path d="M299 25.9903C299 25.9045 298.98 25.8228 298.935 25.7492L295.96 20.5183C295.874 20.3671 295.71 20.269 295.535 20.269H282.461C282.286 20.269 282.122 20.363 282.036 20.5183L279.065 25.7492C279.025 25.8228 279 25.9045 279 25.9903C279 27.1632 279.707 28.1685 280.716 28.614V37.2408C280.716 37.5106 280.937 37.7312 281.207 37.7312H283.916C283.92 37.7312 283.924 37.7312 283.928 37.7312H287.729C287.733 37.7312 287.737 37.7312 287.741 37.7312H296.789C297.059 37.7312 297.28 37.5106 297.28 37.2408V28.6753C297.28 28.6548 297.28 28.6385 297.275 28.6221C298.289 28.1767 299 27.1673 299 25.9903ZM282.747 21.2539H295.248L297.574 25.3446H280.426L282.747 21.2539ZM293.234 26.3214C293.078 27.2041 292.306 27.8743 291.378 27.8743C290.451 27.8743 289.678 27.2041 289.523 26.3214H293.234ZM288.481 26.3214C288.326 27.2041 287.553 27.8743 286.626 27.8743C285.698 27.8743 284.926 27.2041 284.766 26.3214H288.481ZM280.013 26.3214H283.728C283.573 27.2041 282.796 27.8743 281.869 27.8743C280.941 27.8784 280.169 27.2041 280.013 26.3214ZM287.239 36.7505H284.419V31.4583C284.419 31.0741 284.729 30.7594 285.118 30.7594H286.544C286.928 30.7594 287.243 31.07 287.243 31.4583V36.7505H287.239ZM296.299 36.7505H288.219V31.4583C288.219 30.5347 287.468 29.7786 286.54 29.7786H285.114C284.19 29.7786 283.434 30.5306 283.434 31.4583V36.7545H281.697V28.8551C281.754 28.8592 281.812 28.8592 281.869 28.8592C282.858 28.8592 283.732 28.3565 284.247 27.5923C284.762 28.3565 285.637 28.8592 286.626 28.8592C287.615 28.8592 288.485 28.3565 289.004 27.5923C289.519 28.3565 290.394 28.8592 291.378 28.8592C292.367 28.8592 293.238 28.3565 293.753 27.5923C294.268 28.3565 295.142 28.8592 296.131 28.8592C296.188 28.8592 296.242 28.8551 296.299 28.8551V36.7505ZM296.131 27.8784C295.204 27.8784 294.431 27.2082 294.276 26.3254H297.991C297.831 27.2041 297.059 27.8784 296.131 27.8784Z" fill="white"/>
</g>
</g>
<defs>
<filter id="filter0_f_360_951" x="-56" y="9" width="282" height="282" filterUnits="userSpaceOnUse" color-interpolation-filters="sRGB">
<feFlood flood-opacity="0" result="BackgroundImageFix"/>
<feBlend mode="normal" in="SourceGraphic" in2="BackgroundImageFix" result="shape"/>
<feGaussianBlur stdDeviation="52" result="effect1_foregroundBlur_360_951"/>
</filter>
<filter id="filter1_f_360_951" x="91" y="-135" width="285" height="285" filterUnits="userSpaceOnUse" color-interpolation-filters="sRGB">
<feFlood flood-opacity="0" result="BackgroundImageFix"/>
<feBlend mode="normal" in="SourceGraphic" in2="BackgroundImageFix" result="shape"/>
<feGaussianBlur stdDeviation="52" result="effect1_foregroundBlur_360_951"/>
</filter>
<clipPath id="clip0_360_951">
<rect width="327" height="150" rx="20" fill="white"/>
</clipPath>
<clipPath id="clip1_360_951">
<rect width="20" height="20" fill="white" transform="translate(279 19)"/>
</clipPath>
</defs>
</svg>
