<svg width="20" height="20" viewBox="0 0 20 20" fill="none" xmlns="http://www.w3.org/2000/svg">
<g clip-path="url(#clip0_384_3779)">
<path d="M11.1567 9.21871C11.2934 7.43605 12.7943 6.02613 14.6231 6.01609V0.585938C14.6231 0.262344 14.3608 0 14.0372 0H1.34186C1.01826 0 0.75592 0.262344 0.75592 0.585938V15.4688C0.75592 15.7923 1.01826 16.0547 1.34186 16.0547H8.86932V10.945C8.86932 9.99309 9.64369 9.21871 10.5956 9.21871H11.1567ZM6.6153 2.36328H11.8496C12.1732 2.36328 12.4356 2.62562 12.4356 2.94922C12.4356 3.27281 12.1732 3.53516 11.8496 3.53516H6.6153C6.2917 3.53516 6.02936 3.27281 6.02936 2.94922C6.02936 2.62562 6.2917 2.36328 6.6153 2.36328ZM4.69491 9.85238L3.5676 11.0633C3.45655 11.1826 3.30108 11.25 3.13877 11.25C3.13166 11.25 3.12459 11.2499 3.11744 11.2496C2.94744 11.2434 2.78858 11.1637 2.68201 11.0311L2.21326 10.4479C2.01057 10.1956 2.05073 9.8268 2.30295 9.6241C2.55518 9.42141 2.92397 9.46152 3.12674 9.71375L3.17131 9.76918L3.83725 9.05383C4.0578 8.81699 4.42858 8.80371 4.66533 9.02422C4.90217 9.24477 4.91541 9.61551 4.69491 9.85238ZM4.69491 6.2977L3.5676 7.50863C3.45655 7.62789 3.30108 7.69531 3.13877 7.69531C3.13166 7.69531 3.12459 7.6952 3.11744 7.69492C2.94744 7.68875 2.78858 7.60898 2.68201 7.47641L2.21326 6.89316C2.01057 6.64094 2.05073 6.27211 2.30295 6.06941C2.55518 5.86668 2.92397 5.90687 3.12674 6.15906L3.17131 6.21449L3.83725 5.49914C4.0578 5.2623 4.42858 5.24906 4.66533 5.46953C4.90217 5.69008 4.91541 6.06082 4.69491 6.2977ZM4.69491 2.74301L3.5676 3.95395C3.45655 4.0732 3.30108 4.14062 3.13877 4.14062C3.13166 4.14062 3.12459 4.14051 3.11744 4.14023C2.94744 4.13406 2.78858 4.0543 2.68201 3.92172L2.21326 3.33848C2.01057 3.08625 2.05073 2.71742 2.30295 2.51473C2.55518 2.31199 2.92397 2.35219 3.12674 2.60437L3.17131 2.6598L3.83725 1.94445C4.0578 1.70762 4.42858 1.69438 4.66533 1.91484C4.90217 2.13539 4.91541 2.50613 4.69491 2.74301ZM7.59174 10.6445H6.6153C6.2917 10.6445 6.02936 10.3822 6.02936 10.0586C6.02936 9.735 6.2917 9.47266 6.6153 9.47266H7.59174C7.91533 9.47266 8.17768 9.735 8.17768 10.0586C8.17768 10.3822 7.91533 10.6445 7.59174 10.6445ZM9.89647 7.08984H6.6153C6.2917 7.08984 6.02936 6.8275 6.02936 6.50391C6.02936 6.18031 6.2917 5.91797 6.6153 5.91797H9.89647C10.2201 5.91797 10.4824 6.18031 10.4824 6.50391C10.4824 6.8275 10.2201 7.08984 9.89647 7.08984Z" fill="#3580FF"/>
<path d="M18.6897 10.3906H16.9669V11.8243C16.9669 12.1479 16.7045 12.4102 16.3809 12.4102C16.0573 12.4102 15.795 12.1479 15.795 11.8243V10.3906H13.4903V11.8243C13.4903 12.1479 13.228 12.4102 12.9044 12.4102C12.5808 12.4102 12.3184 12.1479 12.3184 11.8243V10.3906H10.5956C10.2894 10.3906 10.0412 10.6388 10.0412 10.945V17.8302C10.0412 19.0266 11.0161 20 12.2144 20H17.0709C18.2692 20 19.2441 19.0266 19.2441 17.8302V10.945C19.2441 10.6388 18.9958 10.3906 18.6897 10.3906Z" fill="#3580FF"/>
<path d="M13.4903 9.48438C13.4903 8.86406 14.0072 8.35938 14.6426 8.35938C15.2781 8.35938 15.795 8.86402 15.795 9.48438V10.3906H16.9669V9.48438C16.9669 8.21789 15.9242 7.1875 14.6426 7.1875C13.361 7.1875 12.3184 8.21785 12.3184 9.48438V10.3906H13.4903V9.48438Z" fill="#3580FF"/>
</g>
<defs>
<clipPath id="clip0_384_3779">
<rect width="20" height="20" fill="white"/>
</clipPath>
</defs>
</svg>
