<svg width="276" height="22" viewBox="0 0 276 22" fill="none" xmlns="http://www.w3.org/2000/svg">
<path d="M103.98 6.68483L102.139 14.4379C102.069 14.7366 101.905 15.0018 101.675 15.1912C101.444 15.3806 101.16 15.4832 100.868 15.4828H89.5141C89.193 15.4828 88.8829 15.3587 88.643 15.1338C88.4031 14.909 88.2501 14.5993 88.213 14.2634L86.8862 3.06897H85.9828C85.7221 3.06897 85.4721 2.95998 85.2878 2.76597C85.1035 2.57197 85 2.30884 85 2.03448C85 1.76012 85.1035 1.497 85.2878 1.30299C85.4721 1.10899 85.7221 1 85.9828 1H87.7432C87.9807 1.00001 88.2101 1.09054 88.3891 1.25485C88.5681 1.41916 88.6845 1.64613 88.7168 1.89379L89.2291 5.82759H103.345C103.444 5.82759 103.543 5.85149 103.632 5.89747C103.722 5.94346 103.8 6.01031 103.861 6.09296C103.923 6.1756 103.965 6.27186 103.986 6.37442C104.006 6.47698 104.005 6.58314 103.98 6.68483ZM88.931 18.931C88.931 20.0717 89.8129 21 90.8966 21C91.9802 21 92.8621 20.0717 92.8621 18.931C92.8621 17.7903 91.9802 16.8621 90.8966 16.8621C89.8129 16.8621 88.931 17.7903 88.931 18.931ZM100.724 18.931C100.724 17.7903 99.8423 16.8621 98.7586 16.8621C97.675 16.8621 96.7931 17.7903 96.7931 18.931C96.7931 20.0717 97.675 21 98.7586 21C99.8423 21 100.724 20.0717 100.724 18.931Z" fill="#3580FF"/>
<g clip-path="url(#clip0_360_2342)">
<path d="M189.627 15.8873C191.753 12.9045 191.428 8.818 188.524 6.15605C187.198 4.93982 185.506 4.18266 183.679 3.97121C183.668 3.957 183.656 3.94327 183.643 3.93005C182.054 2.27898 179.77 1.33203 177.378 1.33203C172.826 1.33203 169 4.72368 169 9.06641C169 10.589 169.473 12.0486 170.371 13.3092L169.116 17.2497C169.078 17.3708 169.076 17.5006 169.111 17.6228C169.146 17.745 169.216 17.8541 169.313 17.9364C169.41 18.0187 169.529 18.0706 169.655 18.0854C169.781 18.1003 169.909 18.0774 170.023 18.0198L173.839 16.079C174.623 16.4166 175.454 16.638 176.315 16.7388C177.975 18.4849 180.271 19.3789 182.62 19.3789C183.841 19.3789 185.058 19.1301 186.159 18.6571L189.976 20.598C190.067 20.644 190.167 20.668 190.268 20.668C190.703 20.668 191.015 20.2441 190.882 19.8278L189.627 15.8873ZM174.099 14.7822C174.01 14.7399 173.913 14.7186 173.814 14.7199C173.716 14.7212 173.619 14.7452 173.531 14.7898L170.812 16.1721L171.7 13.3849C171.732 13.285 171.739 13.1788 171.72 13.0755C171.702 12.9723 171.658 12.8751 171.594 12.7925C170.74 11.6998 170.289 10.4114 170.289 9.06641C170.289 5.51246 173.469 2.62109 177.378 2.62109C178.953 2.62109 180.468 3.098 181.697 3.95682C177.557 4.3731 174.242 7.60667 174.242 11.6445C174.242 12.9004 174.564 14.1095 175.171 15.1927C174.804 15.0836 174.445 14.9463 174.099 14.7822ZM186.468 17.3679C186.38 17.3232 186.283 17.2993 186.184 17.298C186.086 17.2967 185.988 17.318 185.899 17.3603C184.894 17.8376 183.761 18.0898 182.62 18.0898C178.711 18.0898 175.531 15.1985 175.531 11.6445C175.531 8.09059 178.711 5.19922 182.62 5.19922C186.529 5.19922 189.71 8.09059 189.71 11.6445C189.71 12.9895 189.258 14.2779 188.405 15.3706C188.34 15.4532 188.297 15.5504 188.278 15.6536C188.26 15.7569 188.267 15.8631 188.299 15.963L189.186 18.7502L186.468 17.3679Z" fill="#848A94"/>
<path d="M179.999 12.2891C180.355 12.2891 180.644 12.0005 180.644 11.6445C180.644 11.2886 180.355 11 179.999 11C179.643 11 179.355 11.2886 179.355 11.6445C179.355 12.0005 179.643 12.2891 179.999 12.2891Z" fill="#848A94"/>
<path d="M182.577 12.2891C182.933 12.2891 183.222 12.0005 183.222 11.6445C183.222 11.2886 182.933 11 182.577 11C182.221 11 181.933 11.2886 181.933 11.6445C181.933 12.0005 182.221 12.2891 182.577 12.2891Z" fill="#848A94"/>
<path d="M185.155 12.2891C185.511 12.2891 185.8 12.0005 185.8 11.6445C185.8 11.2886 185.511 11 185.155 11C184.799 11 184.511 11.2886 184.511 11.6445C184.511 12.0005 184.799 12.2891 185.155 12.2891Z" fill="#848A94"/>
</g>
<path d="M264.217 10.6341C265.54 10.6341 266.686 10.1594 267.623 9.22276C268.559 8.28635 269.034 7.14057 269.034 5.8169C269.034 4.49363 268.559 3.34773 267.623 2.41097C266.686 1.47469 265.54 1 264.217 1C262.893 1 261.747 1.47469 260.811 2.41113C259.875 3.34757 259.4 4.49351 259.4 5.8169C259.4 7.14057 259.874 8.28651 260.811 9.22295C261.748 10.1592 262.894 10.6341 264.217 10.6341H264.217ZM261.64 3.23984C262.358 2.52129 263.201 2.17203 264.217 2.17203C265.232 2.17203 266.075 2.52129 266.794 3.23984C267.513 3.95851 267.862 4.80155 267.862 5.81687C267.862 6.83249 267.513 7.67542 266.794 8.39409C266.075 9.1128 265.232 9.46205 264.217 9.46205C263.202 9.46205 262.359 9.11264 261.64 8.39409C260.921 7.67557 260.572 6.83253 260.572 5.8169C260.572 4.80155 260.921 3.95851 261.64 3.23984ZM272.646 16.379C272.619 15.9893 272.564 15.5641 272.484 15.1153C272.402 14.663 272.298 14.2354 272.173 13.8447C272.043 13.4408 271.868 13.0419 271.65 12.6597C271.425 12.2629 271.16 11.9175 270.863 11.6332C270.552 11.3358 270.171 11.0967 269.731 10.9223C269.293 10.7488 268.807 10.661 268.287 10.661C268.083 10.661 267.885 10.7447 267.504 10.993C267.233 11.1695 266.961 11.3448 266.688 11.5188C266.426 11.6857 266.072 11.8421 265.633 11.9837C265.205 12.1221 264.771 12.1923 264.342 12.1923C263.914 12.1923 263.48 12.1221 263.052 11.9837C262.614 11.8422 262.259 11.6859 261.997 11.5189C261.694 11.325 261.419 11.148 261.181 10.9928C260.8 10.7446 260.602 10.6608 260.398 10.6608C259.878 10.6608 259.392 10.7488 258.954 10.9225C258.514 11.0966 258.133 11.3357 257.822 11.6334C257.525 11.9178 257.26 12.2631 257.035 12.6597C256.818 13.0419 256.642 13.4406 256.513 13.8448C256.388 14.2356 256.283 14.663 256.202 15.1153C256.121 15.5636 256.067 15.9888 256.04 16.3795C256.013 16.7614 256 17.1589 256 17.5605C256 18.6045 256.332 19.4497 256.986 20.073C257.633 20.6881 258.488 21 259.528 21H269.158C270.198 21 271.053 20.6881 271.7 20.073C272.354 19.4501 272.686 18.6047 272.686 17.5603C272.686 17.1574 272.672 16.7599 272.646 16.379ZM270.891 19.2238C270.464 19.6303 269.897 19.8279 269.158 19.8279H259.528C258.788 19.8279 258.221 19.6303 257.794 19.224C257.376 18.8253 257.172 18.281 257.172 17.5605C257.172 17.1857 257.184 16.8157 257.209 16.4605C257.233 16.112 257.283 15.7291 257.356 15.3223C257.428 14.9206 257.52 14.5435 257.629 14.2022C257.734 13.8749 257.877 13.5508 258.054 13.2386C258.223 12.941 258.418 12.6858 258.633 12.4801C258.834 12.2877 259.087 12.1302 259.386 12.0121C259.662 11.9028 259.972 11.843 260.309 11.834C260.35 11.8559 260.423 11.8975 260.541 11.9747C260.782 12.1317 261.06 12.3109 261.367 12.5069C261.713 12.7276 262.159 12.9269 262.691 13.0988C263.236 13.2749 263.791 13.3643 264.343 13.3643C264.894 13.3643 265.449 13.2749 265.994 13.099C266.527 12.9267 266.973 12.7276 267.319 12.5066C267.633 12.3058 267.903 12.1319 268.144 11.9747C268.263 11.8976 268.336 11.8558 268.377 11.834C268.714 11.843 269.024 11.9028 269.3 12.0121C269.598 12.1302 269.852 12.2878 270.053 12.4801C270.267 12.6856 270.462 12.9409 270.631 13.2388C270.809 13.5508 270.952 13.8751 271.057 14.202C271.166 14.5438 271.258 14.9207 271.33 15.3222C271.403 15.7297 271.452 16.1127 271.477 16.4606V16.4609C271.501 16.8148 271.514 17.1847 271.514 17.5605C271.514 18.2812 271.31 18.8253 270.892 19.2238H270.891Z" fill="#848A94"/>
<g clip-path="url(#clip1_360_2342)">
<path d="M18.3333 5.76998V2.66664C18.3333 2.44563 18.2455 2.23367 18.0893 2.07739C17.933 1.92111 17.721 1.83331 17.5 1.83331C17.279 1.83331 17.067 1.92111 16.9107 2.07739C16.7545 2.23367 16.6667 2.44563 16.6667 2.66664V4.63831L12.3308 1.71248C11.6432 1.24566 10.8312 0.996094 10 0.996094C9.16885 0.996094 8.35684 1.24566 7.66917 1.71248L1.83583 5.64914C1.27024 6.03041 0.807007 6.54483 0.486887 7.14714C0.166766 7.74946 -0.000431867 8.42121 8.37738e-07 9.10331V16.8333C8.37738e-07 19.1308 1.86917 21 4.16667 21H6.66667C6.88768 21 7.09964 20.9122 7.25592 20.7559C7.4122 20.5996 7.5 20.3877 7.5 20.1666V13.5C7.5 13.0408 7.87333 12.6666 8.33333 12.6666H11.6667C12.1267 12.6666 12.5 13.0408 12.5 13.5V20.1666C12.5 20.3877 12.5878 20.5996 12.7441 20.7559C12.9004 20.9122 13.1123 21 13.3333 21H15.8333C18.1308 21 20 19.1308 20 16.8333V9.10331C20.0003 8.4564 19.8499 7.81832 19.5606 7.2397C19.2712 6.66109 18.8511 6.15787 18.3333 5.76998ZM18.3333 16.8333C18.3333 18.2116 17.2117 19.3333 15.8333 19.3333H14.1667V13.5C14.1667 12.1216 13.045 11 11.6667 11H8.33333C6.955 11 5.83333 12.1216 5.83333 13.5V19.3333H4.16667C2.78833 19.3333 1.66667 18.2116 1.66667 16.8333V9.10331C1.66667 8.27081 2.07833 7.49581 2.76833 7.03081L8.60167 3.09415C9.01403 2.81398 9.50106 2.66419 9.99959 2.66419C10.4981 2.66419 10.9851 2.81398 11.3975 3.09415L17.2308 7.03081C17.5703 7.25945 17.8484 7.56807 18.0405 7.92948C18.2326 8.29089 18.3329 8.69401 18.3325 9.10331L18.3333 16.8333Z" fill="#848A94"/>
</g>
<defs>
<clipPath id="clip0_360_2342">
<rect width="22" height="22" fill="white" transform="translate(169)"/>
</clipPath>
<clipPath id="clip1_360_2342">
<rect width="20" height="20" fill="white" transform="translate(0 1)"/>
</clipPath>
</defs>
</svg>
