<svg width="23" height="22" viewBox="0 0 23 22" fill="none" xmlns="http://www.w3.org/2000/svg">
<path d="M16.0449 13.9354L15.4635 14.5143C15.4635 14.5143 14.0796 15.8891 10.3038 12.135C6.52798 8.38092 7.91182 7.00603 7.91182 7.00603L8.27726 6.64058C9.18065 5.74358 9.26626 4.30225 8.47787 3.24936L6.86787 1.09886C5.89165 -0.204471 4.00693 -0.37697 2.88887 0.734696L0.882761 2.72803C0.329483 3.28003 -0.0410729 3.99303 0.00364933 4.78525C0.118649 6.81308 1.03609 11.1741 6.15232 16.2623C11.579 21.657 16.671 21.8717 18.7525 21.6775C19.4118 21.6161 19.9843 21.2814 20.4455 20.8214L22.26 19.0171C23.4866 17.7994 23.1417 15.7103 21.5725 14.858L19.132 13.5304C18.1021 12.9707 16.8499 13.1355 16.0449 13.9354Z" fill="white"/>
</svg>
