<svg width="20" height="20" viewBox="0 0 20 20" fill="none" xmlns="http://www.w3.org/2000/svg">
<path d="M17.0967 14.1935C17.0967 13.7132 16.8815 13.2861 16.5473 12.9903C16.6896 12.7835 16.7741 12.5335 16.7741 12.2642V12.0916C16.7741 11.9532 16.7518 11.8168 16.708 11.6855L15.3367 7.57097C14.9847 6.51548 14.0009 5.80645 12.8886 5.80645H11.8209C12.4799 5.27387 12.9031 4.46 12.9031 3.54839V2.50129C12.9031 1.12194 11.7809 0 10.4018 0H9.59795C8.2186 0 7.09666 1.12194 7.09666 2.50129V3.54839C7.09666 4.46 7.51989 5.27387 8.17892 5.80645H7.11118C5.99892 5.80645 5.01505 6.51548 4.66312 7.57097L3.29183 11.6852C3.24795 11.8165 3.2257 11.9532 3.2257 12.0913V12.2639C3.2257 12.5335 3.30989 12.7835 3.45247 12.9903C3.11828 13.2861 2.90312 13.7132 2.90312 14.1935H1.61279V19.3548H6.77408V20H9.67731H9.99989H13.2257V19.3548H18.387V14.1935H17.0967ZM16.4515 14.1935H14.516C14.516 13.8726 14.6751 13.5894 14.9163 13.4132C15.0905 13.5 15.2854 13.5484 15.4899 13.5484C15.6921 13.5484 15.8812 13.4971 16.0515 13.4135C16.2928 13.5897 16.4515 13.8726 16.4515 14.1935ZM16.096 11.8897C16.118 11.9548 16.1289 12.0229 16.1289 12.0913V12.2639C16.1289 12.4174 16.0721 12.5568 15.9815 12.6671C15.8238 12.6158 15.6586 12.5806 15.4838 12.5806C15.3112 12.5806 15.1483 12.6152 14.9921 12.6655C14.9531 12.6168 14.9205 12.5619 14.8963 12.5016L13.6892 9.48387L15.0651 8.79613L16.096 11.8897ZM14.4289 12.9832C14.0899 13.279 13.8709 13.7094 13.8709 14.1935H13.2257V10.0626L14.297 12.7413C14.3318 12.8284 14.378 12.9077 14.4289 12.9832ZM7.74183 2.50097C7.74183 1.47774 8.57441 0.645161 9.59795 0.645161H10.4018C11.4254 0.645161 12.258 1.47774 12.258 2.50129V2.62613C12.0828 2.47839 11.9254 2.30677 11.7928 2.10774C11.5863 1.79774 11.2412 1.6129 10.8686 1.6129H9.13086C8.7586 1.6129 8.41312 1.79774 8.19602 2.12419C8.06989 2.31355 7.91505 2.48129 7.74183 2.62677V2.50097ZM7.74183 3.54839V3.41C8.13634 3.17742 8.47957 2.86161 8.74441 2.46484C8.83053 2.33548 8.97505 2.25806 9.13118 2.25806H10.8689C11.0247 2.25806 11.1696 2.33548 11.267 2.48194C11.5215 2.86355 11.8638 3.17774 12.258 3.41V3.54839C12.258 4.79323 11.2447 5.80645 9.99989 5.80645C8.75505 5.80645 7.74183 4.79323 7.74183 3.54839ZM11.2109 6.45161C11.0328 6.82645 10.5599 7.09677 9.99989 7.09677C9.43989 7.09677 8.96699 6.82645 8.78892 6.45161H9.99989H11.2109ZM3.87086 12.0916C3.87086 12.0229 3.88183 11.9548 3.90376 11.8897L4.93473 8.79613L6.31053 9.48419L5.10344 12.5016C5.07924 12.5619 5.04666 12.6171 5.00731 12.6658C4.8515 12.6152 4.6886 12.5806 4.51602 12.5806C4.34118 12.5806 4.17602 12.6158 4.01828 12.6674C3.92763 12.5571 3.87086 12.4177 3.87086 12.2642V12.0916ZM3.94828 13.4135C4.11892 13.4971 4.30763 13.5484 4.50989 13.5484C4.71441 13.5484 4.90924 13.5 5.08312 13.4132C5.32473 13.5894 5.48376 13.8726 5.48376 14.1935H3.54828C3.54828 13.8726 3.70699 13.5897 3.94828 13.4135ZM6.77408 18.7097H2.25795V14.8387H2.90312V15.4839H3.54828V14.8387H5.48376V15.4839H6.12892V14.8387H6.77408V18.7097ZM6.77408 14.1935H6.12892C6.12892 13.709 5.90989 13.279 5.57053 12.9832C5.6215 12.9077 5.66763 12.8284 5.70279 12.741L6.77408 10.0623V14.1935ZM9.67731 19.3548H7.41924V18.7097H9.67731V19.3548ZM12.5805 19.3548H10.3225V18.7097H12.5805V19.3548ZM12.5805 18.0645H10.3225V14.5161H9.67731V18.0645H7.41924V14.8061C8.15441 14.6561 8.70957 14.0045 8.70957 13.2258H11.2902C11.2902 14.0045 11.8454 14.6561 12.5805 14.8061V18.0645ZM7.41924 14.1342V13.2258H8.06441C8.06441 13.6458 7.79376 14.0006 7.41924 14.1342ZM12.5805 14.1342C12.2057 14.0006 11.9354 13.6458 11.9354 13.2258H12.5805V14.1342ZM12.5805 8.06452V12.5806H7.41924V8.06452H6.77408V8.32484L6.55086 8.88258L5.14053 8.17742L5.27473 7.77484C5.53892 6.98323 6.27699 6.45161 7.11118 6.45161H8.10344C8.28312 7.18677 9.06505 7.74194 9.99989 7.74194C10.9347 7.74194 11.7163 7.18677 11.8963 6.45161H12.8886C13.7228 6.45161 14.4609 6.98323 14.7247 7.77516L14.8589 8.17774L13.4486 8.8829L13.2257 8.32484V8.06452H12.5805ZM17.7418 18.7097H13.2257V14.8387H13.8709V15.4839H14.516V14.8387H16.4515V15.4839H17.0967V14.8387H17.7418V18.7097Z" fill="#002055"/>
</svg>
