<svg width="16" height="16" viewBox="0 0 16 16" fill="none" xmlns="http://www.w3.org/2000/svg">
<g clip-path="url(#clip0_509_2191)">
<path fill-rule="evenodd" clip-rule="evenodd" d="M7.11247 0.604578L9.13497 1.77227L2.57781 5.55805V8.36333C2.57781 8.47542 2.63337 8.57167 2.73047 8.62773L4.25041 9.50527C4.29894 9.5333 4.3545 9.5333 4.40306 9.50527C4.45159 9.47723 4.47937 9.42911 4.47937 9.37308V6.65592L11.0366 2.87014L13.0591 4.03783C13.2532 4.14992 13.3644 4.34242 13.3644 4.56661V8.07567C12.8153 7.89045 12.2343 7.79055 11.654 7.75514V7.51989C11.654 7.26358 11.5077 7.03373 11.2754 6.9253C11.0433 6.81689 10.773 6.8522 10.5765 7.01664L8.24844 8.96517C8.05531 9.1268 7.94978 9.36248 7.95784 9.61417C7.96591 9.86692 8.08544 10.0937 8.28931 10.2433L10.6096 11.9456C10.8099 12.0926 11.0727 12.1142 11.2943 12.0019C11.5163 11.8895 11.654 11.6653 11.654 11.4165V11.1568C12.1369 11.2144 12.6149 11.3628 13.0075 11.647C13.0836 11.7021 13.1558 11.7622 13.223 11.8267C13.1781 11.8794 13.1231 11.925 13.0591 11.962L7.11247 15.3952C6.91831 15.5073 6.69603 15.5073 6.50187 15.3952L0.555312 11.962C0.361125 11.8499 0.25 11.6574 0.25 11.4331V4.56664C0.25 4.34242 0.361125 4.14992 0.555312 4.03786L6.50191 0.604578C6.69606 0.492484 6.91831 0.492484 7.11247 0.604578ZM11.154 10.6278C14.4193 10.6278 15.3447 13.7465 12.6626 15.1483C12.6478 15.156 12.6416 15.1735 12.6483 15.1887C12.6546 15.2028 12.6696 15.2102 12.6845 15.2065C17.1407 14.1104 16.8291 8.24011 11.154 8.24011V7.51989C11.154 7.45777 11.1201 7.40461 11.0638 7.37833C11.0076 7.35205 10.9451 7.3602 10.8974 7.40008L8.56934 9.34864C8.49322 9.41236 8.45441 9.49905 8.45756 9.59827C8.46075 9.69748 8.50503 9.78152 8.58506 9.84023L10.9053 11.5425C10.954 11.5782 11.0145 11.5832 11.0683 11.5559C11.1222 11.5286 11.154 11.4769 11.154 11.4165V10.6278Z" fill="#07CC66"/>
</g>
<defs>
<clipPath id="clip0_509_2191">
<rect width="16" height="16" fill="white"/>
</clipPath>
</defs>
</svg>
