<svg width="18" height="18" viewBox="0 0 18 18" fill="none" xmlns="http://www.w3.org/2000/svg">
<g clip-path="url(#clip0_360_10305)">
<mask id="mask0_360_10305" style="mask-type:luminance" maskUnits="userSpaceOnUse" x="0" y="0" width="18" height="18">
<path d="M0 1.90735e-06H18V18H0V1.90735e-06Z" fill="white"/>
</mask>
<g mask="url(#mask0_360_10305)">
<path d="M8.3086 13.8516H9.6914M12.4651 13.8516H13.8479M4.16016 13.8516H5.54296M8.3086 9.70313H9.6914M12.4651 9.70313H13.8479M4.16016 9.70313H5.54296M0.703142 6.23436H17.3049M13.1564 4.16015V0.703127M4.85158 4.16015V0.703127M3.47676 17.2969H14.5313C16.0631 17.2969 17.3049 16.0551 17.3049 14.5232V4.85958C17.3049 3.32775 16.0631 2.08593 14.5313 2.08593H3.47676C1.94493 2.08593 0.703142 3.32775 0.703142 4.85958V14.5232C0.703142 16.0551 1.94493 17.2969 3.47676 17.2969Z" stroke="white" stroke-miterlimit="10" stroke-linecap="round" stroke-linejoin="round"/>
</g>
</g>
<defs>
<clipPath id="clip0_360_10305">
<rect width="18" height="18" fill="white"/>
</clipPath>
</defs>
</svg>
