<svg width="20" height="20" viewBox="0 0 20 20" fill="none" xmlns="http://www.w3.org/2000/svg">
<g clip-path="url(#clip0_384_3260)">
<path d="M8.21691 9.63406C9.54042 9.63406 10.6865 9.15934 11.6229 8.22274C12.5594 7.28634 13.0341 6.14056 13.0341 4.8169C13.0341 3.49362 12.5594 2.34773 11.6228 1.41097C10.6862 0.474686 9.54026 0 8.21691 0C6.8932 0 5.74739 0.474686 4.81098 1.41113C3.87458 2.34757 3.3997 3.4935 3.3997 4.8169C3.3997 6.14056 3.87454 7.28649 4.81114 8.22294C5.74774 9.15922 6.89367 9.63406 8.21691 9.63406ZM16.6457 15.379C16.6186 14.9893 16.564 14.5641 16.4836 14.1153C16.4024 13.663 16.2979 13.2354 16.1728 12.8446C16.0436 12.4407 15.8678 12.0419 15.6505 11.6596C15.425 11.2629 15.1601 10.9175 14.8628 10.6332C14.552 10.3358 14.1715 10.0967 13.7314 9.92227C13.2929 9.74883 12.8068 9.66094 12.287 9.66094C12.0828 9.66094 11.8854 9.74469 11.5041 9.99297C11.233 10.1695 10.9612 10.3447 10.6885 10.5187C10.4265 10.6857 10.0716 10.8421 9.63319 10.9837C9.2055 11.1221 8.77124 11.1923 8.34261 11.1923C7.91402 11.1923 7.47988 11.1221 7.05172 10.9837C6.61383 10.8422 6.25891 10.6859 5.99719 10.5189C5.69367 10.325 5.41907 10.148 5.18086 9.99277C4.80001 9.74453 4.60239 9.66074 4.39825 9.66074C3.87821 9.66074 3.39239 9.74879 2.954 9.92246C2.51423 10.0966 2.13353 10.3357 1.8224 10.6334C1.52533 10.9178 1.26029 11.263 1.03506 11.6596C0.817952 12.0419 0.642172 12.4406 0.512758 12.8448C0.387758 13.2356 0.283267 13.663 0.202095 14.1153C0.121666 14.5635 0.0670566 14.9888 0.0400255 15.3794C0.0131358 15.7725 -0.000192407 16.1664 6.46841e-05 16.5604C6.46841e-05 17.6045 0.331938 18.4496 0.986389 19.0729C1.63275 19.688 2.48798 20.0001 3.52802 20.0001H13.1581C14.1982 20.0001 15.0531 19.6882 15.6996 19.073C16.3542 18.4501 16.6861 17.6048 16.6861 16.5603C16.6859 16.1573 16.6724 15.7598 16.6457 15.379Z" fill="#3580FF"/>
</g>
<defs>
<clipPath id="clip0_384_3260">
<rect width="20" height="20" fill="white"/>
</clipPath>
</defs>
</svg>
