<svg width="15" height="15" viewBox="0 0 15 15" fill="none" xmlns="http://www.w3.org/2000/svg">
<path d="M2.5 13.1252H12.5M3.54125 8.24209C3.27464 8.50909 3.12493 8.87101 3.125 9.24834V11.2502H5.13937C5.51687 11.2502 5.87875 11.1002 6.14562 10.8327L12.0831 4.89209C12.3498 4.62512 12.4996 4.2632 12.4996 3.88584C12.4996 3.50847 12.3498 3.14655 12.0831 2.87959L11.4969 2.29209C11.3647 2.1598 11.2077 2.05488 11.0349 1.98332C10.8621 1.91175 10.6769 1.87494 10.4899 1.875C10.3028 1.87506 10.1177 1.91198 9.94492 1.98365C9.77218 2.05533 9.61525 2.16035 9.48312 2.29271L3.54125 8.24209Z" stroke="white" stroke-width="1.25" stroke-linecap="round" stroke-linejoin="round"/>
</svg>
