<svg width="22" height="22" viewBox="0 0 22 22" fill="none" xmlns="http://www.w3.org/2000/svg">
<g clip-path="url(#clip0_439_1694)">
<path d="M20.6272 15.8873C22.7532 12.9045 22.4282 8.818 19.5244 6.15605C18.1977 4.93982 16.5063 4.18266 14.6792 3.97121C14.6679 3.957 14.6559 3.94327 14.6434 3.93005C13.054 2.27898 10.7705 1.33203 8.37839 1.33203C3.82632 1.33203 0 4.72368 0 9.06641C0 10.589 0.472957 12.0486 1.37139 13.3092L0.116316 17.2497C0.0777277 17.3708 0.0758142 17.5006 0.110817 17.6228C0.145819 17.745 0.216175 17.8541 0.313034 17.9364C0.409893 18.0187 0.528929 18.0706 0.655172 18.0854C0.781415 18.1003 0.909225 18.0774 1.02253 18.0198L4.83931 16.079C5.62315 16.4166 6.45434 16.638 7.31509 16.7388C8.97548 18.4849 11.2713 19.3789 13.6202 19.3789C14.8412 19.3789 16.0578 19.1301 17.1591 18.6571L20.9761 20.598C21.0665 20.644 21.1666 20.668 21.2681 20.668C21.703 20.668 22.0149 20.2441 21.8823 19.8278L20.6272 15.8873ZM5.09944 14.7822C5.01039 14.7399 4.91283 14.7186 4.81425 14.7199C4.71567 14.7212 4.61871 14.7452 4.53084 14.7898L1.81234 16.1721L2.70007 13.3849C2.73191 13.285 2.73887 13.1788 2.72036 13.0755C2.70184 12.9723 2.6584 12.8751 2.59381 12.7925C1.74019 11.6998 1.28898 10.4114 1.28898 9.06641C1.28898 5.51246 4.46927 2.62109 8.37839 2.62109C9.95259 2.62109 11.4681 3.098 12.6974 3.95682C8.5574 4.3731 5.24184 7.60667 5.24184 11.6445C5.24184 12.9004 5.56377 14.1095 6.1707 15.1927C5.8036 15.0836 5.44546 14.9463 5.09944 14.7822ZM17.4678 17.3679C17.3799 17.3232 17.2829 17.2993 17.1844 17.298C17.0858 17.2967 16.9882 17.318 16.8992 17.3603C15.8944 17.8376 14.7605 18.0898 13.6202 18.0898C9.71111 18.0898 6.53082 15.1985 6.53082 11.6445C6.53082 8.09059 9.71111 5.19922 13.6202 5.19922C17.5294 5.19922 20.7096 8.09059 20.7096 11.6445C20.7096 12.9895 20.2584 14.2779 19.4048 15.3706C19.3402 15.4532 19.2968 15.5504 19.2783 15.6536C19.2597 15.7569 19.2667 15.8631 19.2985 15.963L20.1862 18.7502L17.4678 17.3679Z" fill="#848A94"/>
<path d="M10.9995 12.2891C11.3555 12.2891 11.644 12.0005 11.644 11.6445C11.644 11.2886 11.3555 11 10.9995 11C10.6435 11 10.355 11.2886 10.355 11.6445C10.355 12.0005 10.6435 12.2891 10.9995 12.2891Z" fill="#848A94"/>
<path d="M13.5771 12.2891C13.9331 12.2891 14.2217 12.0005 14.2217 11.6445C14.2217 11.2886 13.9331 11 13.5771 11C13.2212 11 12.9326 11.2886 12.9326 11.6445C12.9326 12.0005 13.2212 12.2891 13.5771 12.2891Z" fill="#848A94"/>
<path d="M16.1553 12.2891C16.5112 12.2891 16.7998 12.0005 16.7998 11.6445C16.7998 11.2886 16.5112 11 16.1553 11C15.7993 11 15.5107 11.2886 15.5107 11.6445C15.5107 12.0005 15.7993 12.2891 16.1553 12.2891Z" fill="#848A94"/>
</g>
<defs>
<clipPath id="clip0_439_1694">
<rect width="22" height="22" fill="white"/>
</clipPath>
</defs>
</svg>
