<svg width="20" height="20" viewBox="0 0 20 20" fill="none" xmlns="http://www.w3.org/2000/svg">
<g clip-path="url(#clip0_384_3217)">
<path d="M18.3333 4.76998V1.66665C18.3333 1.44563 18.2455 1.23367 18.0893 1.07739C17.933 0.921109 17.721 0.833312 17.5 0.833312C17.279 0.833312 17.067 0.921109 16.9107 1.07739C16.7545 1.23367 16.6667 1.44563 16.6667 1.66665V3.63831L12.3308 0.712478C11.6432 0.245664 10.8312 -0.00390625 10 -0.00390625C9.16885 -0.00390625 8.35684 0.245664 7.66917 0.712478L1.83583 4.64915C1.27024 5.03041 0.807007 5.54483 0.486887 6.14714C0.166766 6.74946 -0.000431867 7.42121 8.37738e-07 8.10331V15.8333C8.37738e-07 18.1308 1.86917 20 4.16667 20H5.83333C6.05435 20 6.26631 19.9122 6.42259 19.7559C6.57887 19.5996 6.66667 19.3877 6.66667 19.1666V11.6666C6.66667 11.2075 7.04 10.8333 7.5 10.8333H12.5C12.96 10.8333 13.3333 11.2075 13.3333 11.6666V19.1666C13.3333 19.3877 13.4211 19.5996 13.5774 19.7559C13.7337 19.9122 13.9457 20 14.1667 20H15.8333C18.1308 20 20 18.1308 20 15.8333V8.10331C20.0003 7.4564 19.8499 6.81832 19.5606 6.2397C19.2712 5.66109 18.8511 5.15787 18.3333 4.76998Z" fill="#3580FF"/>
</g>
<defs>
<clipPath id="clip0_384_3217">
<rect width="20" height="20" fill="white"/>
</clipPath>
</defs>
</svg>
