<svg width="20" height="20" viewBox="0 0 20 20" fill="none" xmlns="http://www.w3.org/2000/svg">
<g clip-path="url(#clip0_384_3301)">
<path d="M8.31164 0.0810547L0.585938 4.54152L8.31164 9.00195L16.0374 4.54152L8.31164 0.0810547Z" fill="#3580FF"/>
<path d="M16.3382 12.5957C14.3191 12.5957 12.6764 14.2384 12.6764 16.2575C12.6764 18.2766 14.3191 19.9193 16.3382 19.9193C18.3573 19.9193 20 18.2766 20 16.2575C20 14.2384 18.3573 12.5957 16.3382 12.5957ZM18.4357 16.8435H16.9242V18.355H15.7523V16.8435H14.2408V15.6716H15.7523V14.1601H16.9242V15.6716H18.4357V16.8435Z" fill="#3580FF"/>
<path d="M7.7257 10.0171L0 5.55664V14.4775L7.7257 18.938V10.0171Z" fill="#3580FF"/>
<path d="M11.5045 16.2574C11.5045 13.5921 13.6729 11.4238 16.3382 11.4238C16.4339 11.4238 16.529 11.4269 16.6233 11.4324V5.55664L8.89758 10.0171V18.938L11.6314 17.3596C11.5485 17.0055 11.5045 16.6365 11.5045 16.2574Z" fill="#3580FF"/>
</g>
<defs>
<clipPath id="clip0_384_3301">
<rect width="20" height="20" fill="white"/>
</clipPath>
</defs>
</svg>
