<svg width="18" height="18" viewBox="0 0 18 18" fill="none" xmlns="http://www.w3.org/2000/svg">
<path d="M7.59373 16.5938C7.44455 16.5938 7.30147 16.5345 7.19598 16.429C7.09049 16.3235 7.03123 16.1804 7.03123 16.0312V10.6228L1.81685 4.88812C1.61159 4.66193 1.47639 4.38102 1.42767 4.07949C1.37895 3.77795 1.4188 3.46876 1.54238 3.18943C1.66597 2.9101 1.86797 2.67265 2.12388 2.50589C2.37979 2.33913 2.6786 2.25024 2.98404 2.25H15.0159C15.3214 2.25024 15.6202 2.33913 15.8761 2.50589C16.132 2.67265 16.334 2.9101 16.4576 3.18943C16.5812 3.46876 16.621 3.77795 16.5723 4.07949C16.5236 4.38102 16.3884 4.66193 16.1831 4.88812L10.9687 10.6228V13.7812C10.9687 13.8655 10.9497 13.9487 10.9132 14.0246C10.8767 14.1006 10.8236 14.1673 10.7578 14.22L7.94529 16.47C7.84557 16.55 7.72157 16.5936 7.59373 16.5938ZM2.98404 3.375C2.89651 3.37522 2.81092 3.4008 2.73763 3.44865C2.66434 3.4965 2.60648 3.56457 2.57107 3.64462C2.53566 3.72467 2.52421 3.81326 2.5381 3.89968C2.55199 3.98611 2.59064 4.06665 2.64935 4.13156L8.00998 10.0378C8.10182 10.1388 8.1538 10.2698 8.15623 10.4062V14.8612L9.84373 13.5V10.4062C9.84339 10.2659 9.89556 10.1304 9.98998 10.0266L15.3506 4.12031C15.4058 4.05511 15.4415 3.97561 15.4534 3.891C15.4654 3.8064 15.4531 3.72014 15.4181 3.64219C15.3831 3.56424 15.3268 3.49779 15.2556 3.45051C15.1844 3.40323 15.1013 3.37705 15.0159 3.375H2.98404Z" fill="white"/>
</svg>
