<svg width="20" height="20" viewBox="0 0 20 20" fill="none" xmlns="http://www.w3.org/2000/svg">
<path d="M15.8567 2.62037H14.0473V1.81092C14.0473 1.54903 13.7616 1.43001 13.4997 1.43001H12.0951C11.7618 0.477696 10.9285 0.00154151 9.97622 0.00154151C9.03439 -0.0338659 8.17773 0.543635 7.85733 1.43001H6.47649C6.2146 1.43001 5.95272 1.54903 5.95272 1.81092V2.62037H4.14329C3.07104 2.63181 2.19383 3.47767 2.14343 4.54878V18.1906C2.14343 19.2381 3.09574 19.9999 4.14329 19.9999H15.8567C16.9042 19.9999 17.8565 19.2381 17.8565 18.1906V4.54882C17.8061 3.47767 16.9289 2.63181 15.8567 2.62037ZM6.90498 2.38231H8.21442C8.32576 2.36873 8.42981 2.31976 8.51124 2.24262C8.59267 2.16547 8.6472 2.06423 8.66678 1.95378C8.80777 1.33978 9.34645 0.899031 9.97622 0.882444C10.6002 0.901355 11.1307 1.34347 11.2618 1.95378C11.2826 2.06783 11.3406 2.17178 11.4268 2.24933C11.5129 2.32688 11.6224 2.37365 11.738 2.38231H13.095V4.28693H6.90498V2.38231ZM16.9042 18.1906C16.9042 18.7144 16.3805 19.0477 15.8567 19.0477H4.14329C3.61952 19.0477 3.09574 18.7144 3.09574 18.1906V4.54882C3.14432 4.00363 3.596 3.5827 4.14329 3.57272H5.95267V4.78692C5.97782 5.05368 6.20886 5.25323 6.47644 5.23929H13.4997C13.6311 5.24648 13.7604 5.20393 13.8619 5.1201C13.9633 5.03628 14.0295 4.91733 14.0473 4.78692V3.57268H15.8566C16.4039 3.5827 16.8556 4.00358 16.9042 4.54878V18.1906H16.9042Z" fill="#848A94"/>
<path d="M8.16678 10.6432C7.98819 10.455 7.69172 10.4444 7.50015 10.6194L5.97644 12.0717L5.33364 11.4051C5.15505 11.2168 4.85858 11.2062 4.66701 11.3813C4.57822 11.4743 4.52869 11.5979 4.52869 11.7265C4.52869 11.8551 4.57822 11.9787 4.66701 12.0717L5.6431 13.0716C5.68483 13.1184 5.73631 13.1554 5.79389 13.18C5.85148 13.2047 5.91378 13.2165 5.9764 13.2145C6.10199 13.2127 6.22179 13.1614 6.30969 13.0716L8.16669 11.3099C8.35079 11.141 8.36309 10.8548 8.19417 10.6708C8.18549 10.6611 8.17635 10.652 8.16678 10.6432ZM14.9996 11.6669H9.52384C9.26086 11.6669 9.04768 11.8801 9.04768 12.1431C9.04768 12.4061 9.26086 12.6193 9.52384 12.6193H14.9996C15.2626 12.6193 15.4757 12.4061 15.4757 12.1431C15.4757 11.8801 15.2626 11.6669 14.9996 11.6669ZM8.16678 6.83399C7.98819 6.64575 7.69172 6.63513 7.50015 6.81021L5.97644 8.26246L5.33364 7.59582C5.15505 7.40757 4.85858 7.39696 4.66701 7.57203C4.57822 7.66504 4.52869 7.78867 4.52869 7.91725C4.52869 8.04582 4.57822 8.16945 4.66701 8.26246L5.6431 9.26239C5.68483 9.30912 5.73631 9.34613 5.79389 9.37081C5.85148 9.39549 5.91378 9.40725 5.9764 9.40525C6.10199 9.40346 6.22179 9.35211 6.30969 9.26239L8.16669 7.50063C8.35079 7.33175 8.36309 7.04557 8.19417 6.86152C8.18549 6.8519 8.17635 6.84272 8.16678 6.83399ZM14.9996 7.85771H9.52384C9.26086 7.85771 9.04768 8.07088 9.04768 8.33386C9.04768 8.59684 9.26086 8.81002 9.52384 8.81002H14.9996C15.2626 8.81002 15.4757 8.59684 15.4757 8.33386C15.4757 8.07088 15.2626 7.85771 14.9996 7.85771ZM8.16678 14.4524C7.98819 14.2642 7.69172 14.2536 7.50015 14.4286L5.97644 15.8809L5.33364 15.2143C5.15505 15.026 4.85858 15.0154 4.66701 15.1905C4.57822 15.2835 4.52869 15.4071 4.52869 15.5357C4.52869 15.6642 4.57822 15.7879 4.66701 15.8809L5.6431 16.8808C5.68483 16.9275 5.73631 16.9646 5.79389 16.9892C5.85148 17.0139 5.91378 17.0257 5.9764 17.0237C6.10199 17.0219 6.22179 16.9705 6.30969 16.8808L8.16669 15.1191C8.35079 14.9502 8.36309 14.664 8.19417 14.4799C8.18547 14.4704 8.17633 14.4612 8.16678 14.4524ZM14.9996 15.4762H9.52384C9.26086 15.4762 9.04768 15.6894 9.04768 15.9523C9.04768 16.2153 9.26086 16.4285 9.52384 16.4285H14.9996C15.2626 16.4285 15.4757 16.2153 15.4757 15.9523C15.4757 15.6894 15.2626 15.4762 14.9996 15.4762Z" fill="#848A94"/>
</svg>
