<svg width="19" height="20" viewBox="0 0 19 20" fill="none" xmlns="http://www.w3.org/2000/svg">
<path d="M18.9804 5.68483L17.1393 13.4379C17.0688 13.7366 16.9052 14.0018 16.6747 14.1912C16.4442 14.3806 16.16 14.4832 15.8676 14.4828H4.51414C4.19295 14.4828 3.88294 14.3587 3.64304 14.1338C3.40314 13.909 3.25008 13.5993 3.21297 13.2634L1.88624 2.06897H0.982759C0.722115 2.06897 0.472147 1.95998 0.287844 1.76597C0.10354 1.57197 0 1.30884 0 1.03448C0 0.760121 0.10354 0.496996 0.287844 0.302993C0.472147 0.10899 0.722115 0 0.982759 0H2.74321C2.98069 1.05419e-05 3.21014 0.0905416 3.38912 0.254851C3.5681 0.419161 3.6845 0.646133 3.7168 0.893793L4.22914 4.82759H18.3448C18.4444 4.82759 18.5427 4.85149 18.6322 4.89747C18.7217 4.94346 18.8001 5.01031 18.8613 5.09296C18.9226 5.1756 18.9652 5.27186 18.9858 5.37442C19.0064 5.47698 19.0046 5.58314 18.9804 5.68483ZM3.93104 17.931C3.93104 19.0717 4.8129 20 5.89656 20C6.98021 20 7.86208 19.0717 7.86208 17.931C7.86208 16.7903 6.98021 15.8621 5.89656 15.8621C4.8129 15.8621 3.93104 16.7903 3.93104 17.931ZM15.7242 17.931C15.7242 16.7903 14.8423 15.8621 13.7586 15.8621C12.675 15.8621 11.7931 16.7903 11.7931 17.931C11.7931 19.0717 12.675 20 13.7586 20C14.8423 20 15.7242 19.0717 15.7242 17.931Z" fill="#3580FF"/>
</svg>
