<svg width="18" height="18" viewBox="0 0 18 18" fill="none" xmlns="http://www.w3.org/2000/svg">
<path d="M7.59376 16.5938C7.44458 16.5938 7.3015 16.5345 7.19601 16.429C7.09052 16.3235 7.03126 16.1804 7.03126 16.0312V10.6228L1.81688 4.88812C1.61162 4.66193 1.47642 4.38102 1.4277 4.07949C1.37898 3.77795 1.41883 3.46876 1.54242 3.18943C1.666 2.9101 1.868 2.67265 2.12391 2.50589C2.37982 2.33913 2.67863 2.25024 2.98407 2.25H15.0159C15.3214 2.25024 15.6202 2.33913 15.8761 2.50589C16.132 2.67265 16.334 2.9101 16.4576 3.18943C16.5812 3.46876 16.621 3.77795 16.5723 4.07949C16.5236 4.38102 16.3884 4.66193 16.1831 4.88812L10.9688 10.6228V13.7812C10.9687 13.8655 10.9497 13.9487 10.9132 14.0246C10.8767 14.1006 10.8236 14.1673 10.7578 14.22L7.94532 16.47C7.8456 16.55 7.72161 16.5936 7.59376 16.5938ZM2.98407 3.375C2.89654 3.37522 2.81095 3.4008 2.73766 3.44865C2.66437 3.4965 2.60651 3.56457 2.5711 3.64462C2.53569 3.72467 2.52424 3.81326 2.53813 3.89968C2.55202 3.98611 2.59067 4.06665 2.64938 4.13156L8.01001 10.0378C8.10185 10.1388 8.15383 10.2698 8.15626 10.4062V14.8612L9.84376 13.5V10.4062C9.84342 10.2659 9.89559 10.1304 9.99001 10.0266L15.3506 4.12031C15.4059 4.05511 15.4415 3.97561 15.4534 3.891C15.4654 3.8064 15.4532 3.72014 15.4182 3.64219C15.3832 3.56424 15.3268 3.49779 15.2556 3.45051C15.1845 3.40323 15.1014 3.37705 15.0159 3.375H2.98407Z" fill="#002055"/>
</svg>
