<svg width="299" height="299" viewBox="0 0 299 299" fill="none" xmlns="http://www.w3.org/2000/svg">
<g opacity="0.2">
<path d="M149.5 263.369C212.388 263.369 263.369 212.388 263.369 149.5C263.369 86.6119 212.388 35.631 149.5 35.631C86.6119 35.631 35.631 86.6119 35.631 149.5C35.631 212.388 86.6119 263.369 149.5 263.369Z" fill="#99BFFF"/>
<path d="M219.916 280.276C198.964 291.579 174.978 297.998 149.5 297.998C67.4869 297.998 1.0021 231.513 1.0021 149.5C1.0021 136.484 2.67401 123.859 5.82209 111.829" stroke="#002055" stroke-width="2" stroke-miterlimit="10" stroke-linecap="round" stroke-linejoin="round"/>
<path d="M47.6278 41.4622C74.2152 16.3755 110.059 1.0021 149.5 1.0021C231.513 1.0021 297.998 67.4869 297.998 149.5C297.998 165.868 295.347 181.617 290.462 196.338" stroke="#002055" stroke-width="2" stroke-miterlimit="10" stroke-linecap="round" stroke-linejoin="round"/>
<path d="M273.425 113.273C276.777 124.764 278.579 136.924 278.579 149.5C278.579 220.789 220.789 278.579 149.5 278.579C122.162 278.579 96.8065 270.081 75.9363 255.58" stroke="#002055" stroke-width="2" stroke-miterlimit="10" stroke-linecap="round" stroke-linejoin="round"/>
<path d="M20.4208 149.5C20.4208 107.026 40.9322 69.3465 72.5924 45.8256C94.0744 29.865 120.686 20.4208 149.5 20.4208C190.702 20.4208 227.395 39.7252 251.03 69.7787" stroke="#002055" stroke-width="2" stroke-miterlimit="10" stroke-linecap="round" stroke-linejoin="round"/>
</g>
<path d="M192.275 197.948C189.022 192.077 183.734 191.702 177.703 191.798C159.232 192.096 140.755 191.924 122.284 191.886C120.293 191.88 118.232 191.823 116.317 191.347C111.353 190.117 107.935 185.488 107.878 180.048C107.77 170.023 107.751 160.004 107.694 149.98C107.757 140.722 107.821 131.471 107.884 122.219C107.941 114.299 112.494 109.778 120.464 109.709C128.143 109.645 135.816 109.575 143.494 109.512C150.349 109.842 157.197 109.804 164.052 109.531C173.702 109.55 183.353 109.575 193.004 109.582C194.044 109.582 195.096 109.296 196.098 109.804C201.983 113.063 204.659 117.945 203.733 124.711C203.562 125.954 203.707 127.241 203.714 128.509C202.452 128.566 201.19 128.668 199.928 128.668C176.613 128.681 153.297 128.674 129.982 128.681C128.929 128.681 127.864 128.668 126.824 128.801C125.581 128.96 125.036 129.841 125.042 131.033C125.049 132.219 125.588 133.106 126.831 133.271C127.871 133.404 128.936 133.392 129.988 133.392C153.304 133.398 176.619 133.392 199.935 133.404C201.196 133.404 202.458 133.512 203.72 133.576C203.72 138.097 203.72 142.624 203.72 147.145C203.092 147.183 202.458 147.259 201.83 147.259C177.558 147.266 153.291 147.266 129.018 147.266C127.167 147.266 125.1 147.202 125.1 149.751C125.1 152.294 127.167 152.25 129.018 152.243C134.719 152.243 140.413 152.237 146.113 152.243C165.313 152.281 184.52 152.319 203.72 152.357C203.72 156.878 203.72 161.406 203.72 165.927C202.458 165.984 201.196 166.098 199.935 166.098C176.619 166.111 153.304 166.104 129.988 166.111C128.936 166.111 127.871 166.092 126.831 166.225C125.581 166.383 125.049 167.277 125.042 168.457C125.042 169.643 125.581 170.53 126.831 170.689C127.871 170.822 128.936 170.816 129.988 170.816C153.304 170.822 176.619 170.816 199.935 170.828C201.196 170.828 202.458 170.936 203.72 170.987C203.72 173.612 203.504 176.262 203.764 178.869C204.335 184.575 201.551 188.19 196.916 190.891C194.234 192.438 192.56 194.765 192.275 197.948Z" fill="#E39644"/>
<path d="M143.494 109.506C135.816 109.575 128.143 109.645 120.464 109.702C112.494 109.766 107.941 114.293 107.884 122.213C107.821 131.464 107.757 140.722 107.694 149.973C103.369 150.087 99.0194 149.409 94.7267 150.455C94.0482 149.529 93.04 149.739 92.1206 149.745C85.5007 149.751 78.8745 149.783 72.2546 149.802C66.5922 149.529 62.4199 145.585 62.3882 139.986C62.2931 122.803 62.2931 105.612 62.3882 88.4223C62.4262 83.2228 66.1864 79.3168 71.3669 78.6193C72.616 78.4545 73.8842 78.3657 75.146 78.3657C95.1832 78.3467 115.22 78.3467 135.264 78.3594C136.31 78.3594 137.356 78.5369 138.403 78.632C138.371 79.6973 139.018 80.4138 139.753 81.0162C142.79 83.5145 143.608 86.7864 143.532 90.5719C143.393 96.8811 143.494 103.19 143.494 109.506Z" fill="#6B61B0"/>
<path d="M192.275 197.948C192.56 194.765 194.228 192.438 196.91 190.872C201.539 188.171 204.322 184.556 203.758 178.85C203.498 176.25 203.714 173.599 203.714 170.968C205.375 170.727 207.417 170.765 207.417 168.432C207.417 166.092 205.362 166.155 203.714 165.902C203.714 161.38 203.714 156.853 203.714 152.332C205.521 152.161 207.512 152.002 207.404 149.567C207.303 147.361 205.394 147.266 203.714 147.12C203.714 142.599 203.714 138.071 203.714 133.55C205.362 133.297 207.41 133.347 207.417 131.014C207.417 128.674 205.375 128.725 203.714 128.49C203.714 127.222 203.568 125.935 203.733 124.692C204.658 117.926 201.983 113.044 196.098 109.785C201.894 109.753 207.702 109.595 213.491 109.734C219.623 109.886 224.531 114.75 224.569 120.932C224.683 140.76 224.664 160.588 224.581 180.409C224.562 185.698 220.853 190.365 215.723 191.347C213.295 191.817 213.009 192.844 213.035 194.892C213.13 202.381 213.079 209.869 213.06 217.358C213.06 218.582 213.39 220.059 211.887 220.668C210.181 221.365 209.433 219.913 208.609 218.867C203.149 211.911 197.715 204.923 192.275 197.948Z" fill="#E17D48"/>
<path d="M143.494 109.506C143.494 103.197 143.393 96.8811 143.52 90.5719C143.596 86.7864 142.778 83.5082 139.74 81.0162C139.005 80.4138 138.365 79.6973 138.39 78.632C143.539 78.594 148.687 78.4355 153.83 78.5559C159.879 78.6954 163.848 82.6838 163.963 88.7267C164.096 95.6573 164.026 102.594 164.045 109.525C157.203 109.791 150.349 109.829 143.494 109.506Z" fill="#5E54AB"/>
<path d="M72.2611 149.796C78.8809 149.777 85.5072 149.745 92.127 149.739C93.0465 149.739 94.0547 149.523 94.7331 150.449C88.8868 157.792 83.0659 165.153 77.1626 172.445C76.2431 173.587 75.6408 175.705 73.6814 175.115C71.5826 174.487 72.5781 172.407 72.5401 170.981C72.3689 163.923 72.3372 156.859 72.2611 149.796Z" fill="#5E54AB"/>
<path d="M203.72 147.126C205.407 147.272 207.315 147.367 207.41 149.574C207.518 152.015 205.521 152.167 203.72 152.338C184.52 152.3 165.313 152.256 146.113 152.224C140.413 152.211 134.719 152.218 129.018 152.224C127.167 152.224 125.1 152.268 125.1 149.732C125.1 147.183 127.167 147.246 129.018 147.246C153.291 147.246 177.558 147.246 201.83 147.24C202.458 147.24 203.086 147.164 203.72 147.126Z" fill="#EFF6FE"/>
<path d="M203.714 128.49C205.369 128.731 207.417 128.674 207.417 131.014C207.417 133.347 205.369 133.297 203.714 133.55C202.452 133.493 201.19 133.379 199.928 133.379C176.613 133.366 153.298 133.373 129.982 133.366C128.93 133.366 127.864 133.379 126.824 133.246C125.582 133.081 125.043 132.193 125.036 131.008C125.03 129.815 125.575 128.934 126.818 128.776C127.858 128.642 128.923 128.655 129.976 128.655C153.291 128.649 176.607 128.655 199.922 128.642C201.19 128.655 202.452 128.547 203.714 128.49Z" fill="#EFF6FE"/>
<path d="M203.714 165.908C205.362 166.161 207.417 166.092 207.417 168.438C207.417 170.771 205.375 170.727 203.714 170.974C202.452 170.917 201.19 170.816 199.928 170.816C176.613 170.803 153.297 170.809 129.982 170.803C128.929 170.803 127.864 170.809 126.824 170.676C125.581 170.518 125.036 169.63 125.036 168.444C125.036 167.258 125.575 166.371 126.824 166.212C127.864 166.079 128.929 166.098 129.982 166.098C153.297 166.092 176.613 166.098 199.928 166.085C201.19 166.079 202.452 165.965 203.714 165.908Z" fill="#EFF6FE"/>
</svg>
