<svg width="20" height="20" viewBox="0 0 20 20" fill="none" xmlns="http://www.w3.org/2000/svg">
<g clip-path="url(#clip0_384_3509)">
<path d="M14.5834 20.0003C11.5967 20.0003 9.16669 17.5703 9.16669 14.5837C9.16669 11.597 11.5967 9.16699 14.5834 9.16699C17.57 9.16699 20 11.597 20 14.5837C20 17.5703 17.57 20.0003 14.5834 20.0003ZM14.5834 10.417C12.2859 10.417 10.4167 12.2862 10.4167 14.5837C10.4167 16.8812 12.2859 18.7503 14.5834 18.7503C16.8809 18.7503 18.75 16.8812 18.75 14.5837C18.75 12.2862 16.8809 10.417 14.5834 10.417Z" fill="#848A94"/>
<path d="M14.5833 17.5003C14.2383 17.5003 13.9583 17.2203 13.9583 16.8753V12.292C13.9583 11.947 14.2383 11.667 14.5833 11.667C14.9283 11.667 15.2083 11.947 15.2083 12.292V16.8753C15.2083 17.2203 14.9283 17.5003 14.5833 17.5003Z" fill="#848A94"/>
<path d="M16.875 15.208H12.2917C11.9467 15.208 11.6667 14.928 11.6667 14.583C11.6667 14.238 11.9467 13.958 12.2917 13.958H16.875C17.22 13.958 17.5 14.238 17.5 14.583C17.5 14.928 17.22 15.208 16.875 15.208Z" fill="#848A94"/>
<path d="M7.65833 17.5H2.29167C1.0275 17.5 0 16.4725 0 15.2083V2.29167C0 1.0275 1.0275 0 2.29167 0H11.875C13.1392 0 14.1667 1.0275 14.1667 2.29167V7.36667C14.1667 7.71167 13.8867 7.99167 13.5417 7.99167C13.1967 7.99167 12.9167 7.71167 12.9167 7.36667V2.29167C12.9167 1.7175 12.4492 1.25 11.875 1.25H2.29167C1.7175 1.25 1.25 1.7175 1.25 2.29167V15.2083C1.25 15.7825 1.7175 16.25 2.29167 16.25H7.65833C8.00333 16.25 8.28333 16.53 8.28333 16.875C8.28333 17.22 8.00333 17.5 7.65833 17.5Z" fill="#848A94"/>
<path d="M11.0417 7.91699H3.125C2.78 7.91699 2.5 7.63699 2.5 7.29199C2.5 6.94699 2.78 6.66699 3.125 6.66699H11.0417C11.3867 6.66699 11.6667 6.94699 11.6667 7.29199C11.6667 7.63699 11.3867 7.91699 11.0417 7.91699Z" fill="#848A94"/>
<path d="M7.70833 11.25H3.125C2.78 11.25 2.5 10.97 2.5 10.625C2.5 10.28 2.78 10 3.125 10H7.70833C8.05333 10 8.33333 10.28 8.33333 10.625C8.33333 10.97 8.05333 11.25 7.70833 11.25Z" fill="#848A94"/>
<path d="M6.875 4.58301H3.125C2.78 4.58301 2.5 4.30301 2.5 3.95801C2.5 3.61301 2.78 3.33301 3.125 3.33301H6.875C7.22 3.33301 7.5 3.61301 7.5 3.95801C7.5 4.30301 7.22 4.58301 6.875 4.58301Z" fill="#848A94"/>
</g>
<defs>
<clipPath id="clip0_384_3509">
<rect width="20" height="20" fill="white"/>
</clipPath>
</defs>
</svg>
