<svg width="16" height="16" viewBox="0 0 16 16" fill="none" xmlns="http://www.w3.org/2000/svg">
<path d="M8.00016 14.6666C4.31826 14.6666 1.3335 11.6818 1.3335 7.99992C1.3335 4.31802 4.31826 1.33325 8.00016 1.33325C11.682 1.33325 14.6668 4.31802 14.6668 7.99992C14.6668 11.6818 11.682 14.6666 8.00016 14.6666ZM8.00016 13.3333C10.9457 13.3333 13.3335 10.9455 13.3335 7.99992C13.3335 5.0544 10.9457 2.66659 8.00016 2.66659C5.05464 2.66659 2.66683 5.0544 2.66683 7.99992C2.66683 10.9455 5.05464 13.3333 8.00016 13.3333ZM8.00016 7.05712L9.88576 5.17149L10.8286 6.1143L8.94296 7.99992L10.8286 9.88552L9.88576 10.8283L8.00016 8.94272L6.11454 10.8283L5.17174 9.88552L7.05736 7.99992L5.17174 6.1143L6.11454 5.17149L8.00016 7.05712Z" fill="#FF3C3C"/>
</svg>
