<svg width="20" height="20" viewBox="0 0 20 20" fill="none" xmlns="http://www.w3.org/2000/svg">
<g clip-path="url(#clip0_384_3271)">
<path d="M13.3375 1.51561H11.8741C11.7852 1.51286 11.6996 1.48134 11.6302 1.42579C11.5607 1.37025 11.5112 1.29366 11.489 1.20755C11.3503 0.487123 10.7075 -0.0249568 9.97432 0.00093957C9.23669 -0.011984 8.59705 0.5084 8.45966 1.23325C8.4366 1.31679 8.38605 1.39011 8.31616 1.44135C8.24628 1.4926 8.16115 1.51878 8.07455 1.51566H6.66254V4.08293H13.3375V1.51561Z" fill="#848A94"/>
<path d="M17.4451 18.8186V4.10817C17.4467 3.52685 16.9766 3.05433 16.3953 3.05276C16.3687 3.05271 16.342 3.05364 16.3155 3.05556H14.1076V4.36487C14.1076 4.57027 13.9792 4.85268 13.7738 4.85268H6.20041C5.99501 4.85268 5.89236 4.57027 5.89236 4.36487V3.05561H3.68449C3.10474 3.01305 2.60023 3.44857 2.55773 4.02836C2.55576 4.05495 2.55483 4.08158 2.55492 4.10822V18.8187C2.54058 19.4566 3.04607 19.9853 3.68395 19.9996H16.3155C16.9534 19.9856 17.4591 19.4571 17.4451 18.8192L17.4451 18.8186ZM7.92048 15.4298L5.91801 17.304C5.88634 17.3418 5.8472 17.3728 5.80304 17.3949C5.75887 17.417 5.71062 17.4297 5.66131 17.4323C5.55402 17.4281 5.45265 17.382 5.37891 17.304L4.32634 16.2257C4.2591 16.1504 4.22411 16.0517 4.22891 15.9509C4.23371 15.8501 4.27791 15.7552 4.35199 15.6866C4.42397 15.616 4.52075 15.5765 4.62155 15.5765C4.72234 15.5765 4.81912 15.616 4.8911 15.6866L5.66126 16.5081L7.40703 14.865C7.48377 14.8121 7.57711 14.7888 7.66972 14.7994C7.76234 14.8101 7.84795 14.854 7.91066 14.923C7.97337 14.992 8.00893 15.0814 8.01074 15.1746C8.01254 15.2678 7.98048 15.3585 7.92048 15.4298ZM7.92048 11.3222L5.91801 13.1963C5.88634 13.2342 5.8472 13.2652 5.80304 13.2872C5.75887 13.3093 5.71062 13.3221 5.66131 13.3247C5.55402 13.3204 5.45265 13.2744 5.37891 13.1963L4.32634 12.1181C4.2591 12.0428 4.22411 11.9441 4.22891 11.8433C4.23371 11.7424 4.27791 11.6475 4.35199 11.5789C4.42397 11.5084 4.52075 11.4689 4.62155 11.4689C4.72234 11.4689 4.81912 11.5084 4.8911 11.5789L5.66126 12.4005L7.40703 10.7574C7.48377 10.7045 7.57711 10.6811 7.66972 10.6918C7.76234 10.7025 7.84795 10.7464 7.91066 10.8153C7.97337 10.8843 8.00893 10.9737 8.01074 11.0669C8.01254 11.1601 7.98048 11.2508 7.92048 11.3222ZM7.92048 7.21455L5.91801 9.08867C5.88634 9.12656 5.8472 9.15751 5.80304 9.1796C5.75887 9.20168 5.71062 9.21442 5.66131 9.21702C5.55402 9.21278 5.45265 9.16671 5.37891 9.08867L4.32634 8.01041C4.2591 7.93512 4.22411 7.83644 4.22891 7.73561C4.23371 7.63478 4.27791 7.53987 4.35199 7.4713C4.42397 7.40074 4.52075 7.36122 4.62155 7.36122C4.72234 7.36122 4.81912 7.40074 4.8911 7.4713L5.66126 8.29281L7.40703 6.64974C7.48377 6.59681 7.57711 6.5735 7.66972 6.58416C7.76234 6.59482 7.84795 6.63871 7.91066 6.70769C7.97337 6.77668 8.00893 6.86607 8.01074 6.95928C8.01254 7.05249 7.98048 7.14319 7.92048 7.21455ZM15.3913 16.9189H9.4865C9.38437 16.9189 9.28641 16.8783 9.21419 16.8061C9.14197 16.7338 9.1014 16.6359 9.1014 16.5338C9.1014 16.4316 9.14197 16.3337 9.21419 16.2614C9.28641 16.1892 9.38437 16.1486 9.4865 16.1486H15.3912C15.4934 16.1486 15.5913 16.1892 15.6635 16.2614C15.7358 16.3336 15.7763 16.4316 15.7763 16.5337C15.7764 16.6359 15.7358 16.7338 15.6636 16.806C15.5914 16.8783 15.4934 16.9188 15.3913 16.9189ZM15.3913 12.8112H9.4865C9.38437 12.8112 9.28641 12.7706 9.21419 12.6984C9.14197 12.6262 9.1014 12.5282 9.1014 12.4261C9.1014 12.324 9.14197 12.226 9.21419 12.1538C9.28641 12.0816 9.38437 12.041 9.4865 12.041H15.3912C15.4934 12.041 15.5913 12.0816 15.6635 12.1538C15.7358 12.226 15.7763 12.3239 15.7763 12.4261C15.7764 12.5282 15.7358 12.6262 15.6636 12.6984C15.5914 12.7706 15.4934 12.8112 15.3913 12.8112ZM15.3913 8.70357H9.4865C9.38437 8.70357 9.28641 8.66299 9.21419 8.59077C9.14197 8.51855 9.1014 8.4206 9.1014 8.31846C9.1014 8.21633 9.14197 8.11837 9.21419 8.04615C9.28641 7.97393 9.38437 7.93336 9.4865 7.93336H15.3912C15.4934 7.93335 15.5913 7.97392 15.6635 8.04614C15.7358 8.11835 15.7763 8.2163 15.7763 8.31844C15.7764 8.42057 15.7358 8.51853 15.6636 8.59075C15.5914 8.66298 15.4934 8.70356 15.3913 8.70357Z" fill="#848A94"/>
</g>
<defs>
<clipPath id="clip0_384_3271">
<rect width="20" height="20" fill="white"/>
</clipPath>
</defs>
</svg>
