<svg width="20" height="20" viewBox="0 0 20 20" fill="none" xmlns="http://www.w3.org/2000/svg">
<g clip-path="url(#clip0_384_3287)">
<path d="M11.875 0H2.29167C1.025 0 0 1.025 0 2.29167V15.2083C0 16.475 1.025 17.5 2.29167 17.5H7.78333C7.33333 16.55 7.08333 15.4917 7.08333 14.375C7.08333 13.4167 7.26667 12.5 7.60833 11.6583C7.575 11.6667 7.54167 11.6667 7.5 11.6667H3.33333C2.875 11.6667 2.5 11.2917 2.5 10.8333C2.5 10.375 2.875 10 3.33333 10H7.5C7.81667 10 8.1 10.1833 8.23333 10.45C8.775 9.60833 9.475 8.89167 10.3 8.33333H3.33333C2.875 8.33333 2.5 7.95833 2.5 7.5C2.5 7.04167 2.875 6.66667 3.33333 6.66667H10.8333C11.2917 6.66667 11.6667 7.04167 11.6667 7.5C11.6667 7.54167 11.6667 7.575 11.6583 7.60833C12.4333 7.29167 13.2833 7.10833 14.1667 7.09167V2.29167C14.1667 1.025 13.1417 0 11.875 0ZM6.66667 5H3.33333C2.875 5 2.5 4.625 2.5 4.16667C2.5 3.70833 2.875 3.33333 3.33333 3.33333H6.66667C7.125 3.33333 7.5 3.70833 7.5 4.16667C7.5 4.625 7.125 5 6.66667 5Z" fill="#3580FF"/>
<path d="M14.375 8.75C11.2733 8.75 8.75 11.2733 8.75 14.375C8.75 17.4767 11.2733 20 14.375 20C17.4767 20 20 17.4767 20 14.375C20 11.2733 17.4767 8.75 14.375 8.75ZM16.6667 15.2083H15.2083V16.6667C15.2083 17.1267 14.835 17.5 14.375 17.5C13.915 17.5 13.5417 17.1267 13.5417 16.6667V15.2083H12.0833C11.6233 15.2083 11.25 14.835 11.25 14.375C11.25 13.915 11.6233 13.5417 12.0833 13.5417H13.5417V12.0833C13.5417 11.6233 13.915 11.25 14.375 11.25C14.835 11.25 15.2083 11.6233 15.2083 12.0833V13.5417H16.6667C17.1267 13.5417 17.5 13.915 17.5 14.375C17.5 14.835 17.1267 15.2083 16.6667 15.2083Z" fill="#3580FF"/>
</g>
<defs>
<clipPath id="clip0_384_3287">
<rect width="20" height="20" fill="white"/>
</clipPath>
</defs>
</svg>
