<svg width="20" height="20" viewBox="0 0 20 20" fill="none" xmlns="http://www.w3.org/2000/svg">
<g clip-path="url(#clip0_384_3761)">
<path d="M19.082 9.84379H17.1289V8.96875C17.1289 7.89527 16.3798 6.99176 15.3711 6.74117V0.585938C15.3711 0.262344 15.1088 0 14.7852 0H0.917969C0.594375 0 0.332031 0.262344 0.332031 0.585938V16.6406C0.332031 16.9642 0.594375 17.2266 0.917969 17.2266H9.94141V17.7067C9.94141 18.9713 10.9718 20 12.2383 20H17.3711C18.6376 20 19.668 18.9713 19.668 17.7067V10.4297C19.668 10.1061 19.4056 9.84379 19.082 9.84379ZM15.957 8.96875V9.84379H13.6523V8.96875C13.6523 8.34844 14.1693 7.84375 14.8047 7.84375C15.4401 7.84375 15.957 8.3484 15.957 8.96875ZM1.50391 16.0547V1.17188H14.1992V6.75141C13.2104 7.01539 12.4805 7.90918 12.4805 8.96871V9.84375H10.5273C10.2037 9.84375 9.94141 10.1061 9.94141 10.4297V16.0547H1.50391ZM18.4961 17.7067C18.4961 18.3251 17.9914 18.8281 17.3711 18.8281H12.2383C11.618 18.8281 11.1133 18.3251 11.1133 17.7067V11.0157H12.4805V12.5586C12.4805 12.8822 12.7428 13.1445 13.0664 13.1445C13.39 13.1445 13.6523 12.8822 13.6523 12.5586V11.0157H15.957V12.5586C15.957 12.8822 16.2194 13.1445 16.543 13.1445C16.8666 13.1445 17.1289 12.8822 17.1289 12.5586V11.0157H18.4961V17.7067Z" fill="black"/>
<path d="M4.42892 2.53041L3.76298 3.24577L3.71841 3.19034C3.51568 2.93811 3.14685 2.89791 2.89462 3.10069C2.6424 3.30338 2.60224 3.67221 2.80494 3.92444L3.27369 4.50768C3.38029 4.64026 3.53915 4.72002 3.70912 4.7262C3.71626 4.72643 3.72333 4.72659 3.73044 4.72659C3.89275 4.72659 4.04822 4.65916 4.15927 4.53991L5.28658 3.32897C5.50712 3.09213 5.49384 2.72135 5.25697 2.50084C5.02025 2.28034 4.64943 2.29358 4.42892 2.53041Z" fill="black"/>
<path d="M7.20703 4.12109H12.4414C12.765 4.12109 13.0273 3.85875 13.0273 3.53516C13.0273 3.21156 12.765 2.94922 12.4414 2.94922H7.20703C6.88344 2.94922 6.62109 3.21156 6.62109 3.53516C6.62109 3.85875 6.88344 4.12109 7.20703 4.12109Z" fill="black"/>
<path d="M4.42892 6.0851L3.76298 6.80045L3.71841 6.74502C3.51568 6.4928 3.14685 6.45264 2.89462 6.65538C2.6424 6.85811 2.60224 7.2269 2.80494 7.47913L3.27369 8.06237C3.38029 8.19495 3.53915 8.27471 3.70912 8.28088C3.71626 8.28112 3.72333 8.28127 3.73044 8.28127C3.89275 8.28127 4.04822 8.21385 4.15927 8.09459L5.28658 6.88366C5.50712 6.64682 5.49384 6.27604 5.25697 6.05553C5.02025 5.83502 4.64943 5.84827 4.42892 6.0851Z" fill="black"/>
<path d="M7.20703 7.67578H10.4882C10.8118 7.67578 11.0741 7.41344 11.0741 7.08984C11.0741 6.76625 10.8118 6.50391 10.4882 6.50391H7.20703C6.88344 6.50391 6.62109 6.76625 6.62109 7.08984C6.62109 7.41344 6.88344 7.67578 7.20703 7.67578Z" fill="black"/>
<path d="M4.42892 9.63979L3.76298 10.3551L3.71841 10.2997C3.51568 10.0474 3.14685 10.0073 2.89462 10.2101C2.6424 10.4128 2.60224 10.7816 2.80494 11.0338L3.27369 11.6171C3.38029 11.7496 3.53915 11.8294 3.70912 11.8356C3.71626 11.8358 3.72333 11.836 3.73044 11.836C3.89275 11.836 4.04822 11.7685 4.15927 11.6493L5.28658 10.4383C5.50712 10.2015 5.49384 9.83073 5.25697 9.61022C5.02025 9.38971 4.64943 9.40295 4.42892 9.63979Z" fill="black"/>
<path d="M8.18348 10.0586H7.20703C6.88344 10.0586 6.62109 10.3209 6.62109 10.6445C6.62109 10.9681 6.88344 11.2305 7.20703 11.2305H8.18348C8.50707 11.2305 8.76941 10.9681 8.76941 10.6445C8.76941 10.3209 8.50707 10.0586 8.18348 10.0586Z" fill="black"/>
</g>
<defs>
<clipPath id="clip0_384_3761">
<rect width="20" height="20" fill="white"/>
</clipPath>
</defs>
</svg>
