<svg width="17" height="17" viewBox="0 0 17 17" fill="none" xmlns="http://www.w3.org/2000/svg">
<path d="M8.50002 17C3.80559 17 0 13.1944 0 8.50002C0 3.80559 3.80559 0 8.50002 0C13.1944 0 17 3.80559 17 8.50002C17 13.1944 13.1944 17 8.50002 17ZM8.50002 15.3C12.2556 15.3 15.3 12.2556 15.3 8.50002C15.3 4.74447 12.2556 1.7 8.50002 1.7C4.74447 1.7 1.7 4.74447 1.7 8.50002C1.7 12.2556 4.74447 15.3 8.50002 15.3ZM7.65002 11.05H9.35002V12.75H7.65002V11.05ZM9.35002 9.65186V10.2H7.65002V8.92502C7.65002 8.45557 8.03056 8.07502 8.50002 8.07502C9.20416 8.07502 9.77502 7.50416 9.77502 6.80002C9.77502 6.09585 9.20416 5.52501 8.50002 5.52501C7.88147 5.52501 7.36578 5.96551 7.2495 6.54992L5.58223 6.21646C5.85343 4.85282 7.05672 3.82501 8.50002 3.82501C10.1431 3.82501 11.475 5.15696 11.475 6.80002C11.475 8.14769 10.5789 9.2861 9.35002 9.65186Z" fill="#848A94"/>
</svg>
