<svg width="14" height="14" viewBox="0 0 14 14" fill="none" xmlns="http://www.w3.org/2000/svg">
<path d="M7.00008 12.8334C3.77842 12.8334 1.16675 10.2217 1.16675 7.00008C1.16675 3.77842 3.77842 1.16675 7.00008 1.16675C10.2217 1.16675 12.8334 3.77842 12.8334 7.00008C12.8334 10.2217 10.2217 12.8334 7.00008 12.8334ZM7.00008 11.6667C9.57742 11.6667 11.6667 9.57742 11.6667 7.00008C11.6667 4.42275 9.57742 2.33341 7.00008 2.33341C4.42275 2.33341 2.33341 4.42275 2.33341 7.00008C2.33341 9.57742 4.42275 11.6667 7.00008 11.6667ZM4.08342 6.41675H9.91675V7.58342H4.08342V6.41675Z" fill="white"/>
</svg>
