<svg width="9" height="14" viewBox="0 0 9 14" fill="none" xmlns="http://www.w3.org/2000/svg">
<path d="M8.96008 7.23057C8.96008 6.95057 8.74596 6.73645 8.46596 6.73645C8.18596 6.73645 7.97184 6.95057 7.97184 7.23057C7.97184 9.15764 6.40712 10.7224 4.48004 10.7224C2.55296 10.7224 0.988244 9.15764 0.988244 7.23057C0.988244 6.95057 0.774125 6.73645 0.494122 6.73645C0.21412 6.73645 0 6.95057 0 7.23057C0 9.52 1.71296 11.4471 3.98592 11.6941V13.0118H2.19061C1.91061 13.0118 1.69649 13.2259 1.69649 13.5059C1.69649 13.7859 1.91061 14 2.19061 14H6.76947C7.04948 14 7.2636 13.7859 7.2636 13.5059C7.2636 13.2259 7.04948 13.0118 6.76947 13.0118H4.97416V11.6941C7.24713 11.4471 8.96008 9.52 8.96008 7.23057Z" fill="#85959E"/>
<path d="M4.48087 0C2.96556 0 1.73025 1.23531 1.73025 2.75061V7.21418C1.73025 8.74596 2.96556 9.9648 4.48087 9.98127C5.99618 9.98127 7.23148 8.74596 7.23148 7.23065V2.75061C7.23148 1.23531 5.99618 0 4.48087 0Z" fill="#85959E"/>
</svg>
