<svg width="25" height="25" viewBox="0 0 25 25" fill="none" xmlns="http://www.w3.org/2000/svg">
<path d="M24.9998 12.7845C25.0009 11.9327 24.9274 11.0824 24.7802 10.243H12.7532V15.0569H19.6417C19.5007 15.8258 19.2024 16.5587 18.7646 17.2115C18.3269 17.8643 17.7588 18.4235 17.0946 18.8553V21.9801H21.2057C23.6129 19.8049 24.9998 16.5881 24.9998 12.7845Z" fill="#4285F4"/>
<path d="M12.753 24.9994C16.1946 24.9994 19.0925 23.8918 21.2056 21.9822L17.0945 18.8573C15.9502 19.6177 14.4765 20.0517 12.753 20.0517C9.42657 20.0517 6.60314 17.8539 5.59351 14.8923H1.35837V18.1126C2.41984 20.1827 4.04749 21.923 6.05961 23.1391C8.07172 24.3552 10.3891 24.9992 12.753 24.9994Z" fill="#34A853"/>
<path d="M5.59313 14.8923C5.05938 13.3404 5.05938 11.6598 5.59313 10.1079V6.88756H1.35799C0.465047 8.62905 0 10.5511 0 12.5001C0 14.4491 0.465047 16.3711 1.35799 18.1126L5.59313 14.8923Z" fill="#FBBC04"/>
<path d="M12.753 4.94846C14.5718 4.91934 16.3292 5.59282 17.6453 6.82335L21.2853 3.25584C18.9772 1.1311 15.9194 -0.0354262 12.753 0.000820071C10.3891 0.000925664 8.07172 0.644976 6.05961 1.86107C4.04749 3.07716 2.41984 4.81743 1.35837 6.88758L5.59351 10.1079C6.60314 7.14625 9.42657 4.94846 12.753 4.94846Z" fill="#EA4335"/>
</svg>
