<svg width="20" height="20" viewBox="0 0 20 20" fill="none" xmlns="http://www.w3.org/2000/svg">
<path d="M4.13788 17.9308C4.13788 19.0715 5.06615 19.9998 6.20683 19.9998C7.3475 19.9998 8.27577 19.0715 8.27577 17.9308C8.27577 16.7902 7.3475 15.8619 6.20683 15.8619C5.06615 15.8619 4.13788 16.7902 4.13788 17.9308ZM6.89647 17.9308C6.89647 18.3108 6.58682 18.6205 6.20683 18.6205C5.82683 18.6205 5.51718 18.3108 5.51718 17.9308C5.51718 17.5508 5.82683 17.2412 6.20683 17.2412C6.58682 17.2412 6.89647 17.5508 6.89647 17.9308ZM16.5515 17.9308C16.5515 16.7902 15.6233 15.8619 14.4826 15.8619C13.3419 15.8619 12.4137 16.7902 12.4137 17.9308C12.4137 19.0715 13.3419 19.9998 14.4826 19.9998C15.6233 19.9998 16.5515 19.0715 16.5515 17.9308ZM13.7929 17.9308C13.7929 17.5508 14.1026 17.2412 14.4826 17.2412C14.8626 17.2412 15.1722 17.5508 15.1722 17.9308C15.1722 18.3108 14.8626 18.6205 14.4826 18.6205C14.1026 18.6205 13.7929 18.3108 13.7929 17.9308ZM2.13791 1.37929L3.32203 12.6302C3.37465 13.139 3.61428 13.6102 3.99449 13.9525C4.37469 14.2947 4.8684 14.4836 5.37994 14.4826H16.1267C16.5997 14.4805 17.0579 14.3173 17.4257 14.02C17.7935 13.7226 18.049 13.3088 18.1501 12.8468L19.8067 5.11649C19.8502 4.91543 19.848 4.70714 19.8001 4.50706C19.7522 4.30699 19.6599 4.12024 19.5301 3.96065C19.401 3.80034 19.2376 3.67107 19.0519 3.58238C18.8661 3.4937 18.6629 3.44785 18.457 3.44824H3.74272L3.44479 0.617924C3.42705 0.448311 3.3471 0.291284 3.22037 0.177165C3.09364 0.0630454 2.92913 -7.20237e-05 2.75859 6.16775e-08H0.689647C0.506742 6.16775e-08 0.331327 0.0726591 0.201993 0.201993C0.072659 0.331327 0 0.506742 0 0.689647C0 0.872553 0.072659 1.04797 0.201993 1.1773C0.331327 1.30664 0.506742 1.37929 0.689647 1.37929H2.13791ZM18.457 4.82753L16.8012 12.5578C16.7329 12.8736 16.4495 13.1033 16.126 13.1033H5.37994C5.20942 13.1037 5.04483 13.0408 4.91805 12.9267C4.79127 12.8127 4.71134 12.6557 4.69374 12.4861L3.88754 4.82753H18.457Z" fill="#848A94"/>
</svg>
