<svg width="20" height="20" viewBox="0 0 20 20" fill="none" xmlns="http://www.w3.org/2000/svg">
<path d="M13.8266 12.5836C14.2077 12.963 14.5853 13.3388 14.9611 13.7147C16.5477 15.3013 18.1343 16.8879 19.7226 18.4744C19.9738 18.7256 20.0569 19.0252 19.9616 19.363C19.8681 19.6921 19.6412 19.9034 19.3069 19.9762C18.983 20.0454 18.7024 19.9519 18.4669 19.7163C17.5004 18.7464 16.5304 17.7799 15.5639 16.8116C14.5957 15.8434 13.6274 14.8752 12.6609 13.9069C12.6367 13.8827 12.6176 13.8515 12.5951 13.8221C10.7037 15.258 8.60266 15.7932 6.28514 15.3584C4.36599 14.9981 2.80366 14.0178 1.60679 12.4745C-0.762698 9.42258 -0.480369 5.03869 2.24766 2.29161C4.98088 -0.46067 9.36651 -0.775908 12.4323 1.57453C14.1505 2.89264 15.1655 4.63684 15.434 6.78636C15.7025 8.93067 15.1326 10.8602 13.8266 12.5836ZM1.76441 7.74073C1.75921 11.0507 4.42488 13.7285 7.73316 13.7372C11.0414 13.7459 13.7279 11.0767 13.7348 7.77537C13.74 4.45671 11.0743 1.77198 7.7678 1.76679C4.4526 1.75986 1.7696 4.43073 1.76441 7.74073Z" fill="white"/>
</svg>
