<svg width="15" height="14" viewBox="0 0 15 14" fill="none" xmlns="http://www.w3.org/2000/svg">
<path d="M13.2465 0H1.68916C0.757566 0 0 0.757316 0 1.69001V12.3119C0 13.2435 0.757566 14 1.68916 14H13.2464C14.178 14 14.9348 13.2435 14.9348 12.3119V1.69001C14.9348 0.757316 14.1781 0 13.2465 0ZM9.65763 2.51337C10.5585 2.51337 11.2891 3.24404 11.2891 4.14489C11.2891 5.04574 10.5585 5.77641 9.65763 5.77641C8.75648 5.77641 8.02611 5.04574 8.02611 4.14489C8.02611 3.24404 8.75648 2.51337 9.65763 2.51337ZM12.7167 12.4386H7.46727H2.45168C2.00108 12.4386 1.8004 12.1126 2.00353 11.7104L4.80352 6.16447C5.00639 5.76231 5.39305 5.72642 5.66687 6.08423L8.48236 9.76362C8.75618 10.1215 9.23478 10.1519 9.55154 9.83131L10.2403 9.13384C10.5568 8.81322 11.0232 8.85292 11.2815 9.22193L13.0651 11.7696C13.3229 12.1392 13.1673 12.4386 12.7167 12.4386Z" fill="#85959E"/>
</svg>
