<svg width="18" height="14" viewBox="0 0 18 14" fill="none" xmlns="http://www.w3.org/2000/svg">
<path d="M11.3701 8.16025C11.3701 9.68935 10.1262 10.9333 8.59707 10.9333C7.06797 10.9333 5.82454 9.68935 5.82454 8.16025C5.82454 6.63115 7.06797 5.38725 8.59707 5.38725C10.1262 5.38725 11.3701 6.63163 11.3701 8.16025ZM17.1941 4.22272V12.0987C17.1941 13.1487 16.3428 14 15.2929 14H1.90127C0.851293 14 0 13.1487 0 12.0987V4.22272C0 3.17274 0.851293 2.32145 1.90127 2.32145H4.23983V1.66361C4.23983 0.744823 4.98418 0 5.90344 0H11.2907C12.21 0 12.9543 0.744823 12.9543 1.66361V2.32098H15.2929C16.3428 2.32145 17.1941 3.17274 17.1941 4.22272ZM12.796 8.16025C12.796 5.84498 10.9123 3.9613 8.59707 3.9613C6.28227 3.9613 4.39859 5.84498 4.39859 8.16025C4.39859 10.4755 6.28227 12.3592 8.59707 12.3592C10.9123 12.3592 12.796 10.4755 12.796 8.16025Z" fill="#85959E"/>
</svg>
