<svg width="29" height="22" viewBox="0 0 29 22" fill="none" xmlns="http://www.w3.org/2000/svg">
<g clip-path="url(#clip0_360_3437)">
<path d="M6.59093 21.3291V10.3441L3.11603 7.22739L0 5.49783V19.3906C0 20.4632 0.886426 21.3291 1.97732 21.3291H6.59093Z" fill="#4285F4"/>
<path d="M22.409 21.329H27.0226C28.1168 21.329 28.9999 20.4599 28.9999 19.3905V5.49783L25.4705 7.47883L22.409 10.344V21.329Z" fill="#34A853"/>
<path d="M6.59101 10.3445L6.11817 6.05229L6.59101 1.94425L14.5001 7.75985L22.4091 1.94425L22.9381 5.8305L22.4091 10.3445L14.5001 16.1601L6.59101 10.3445Z" fill="#EA4335"/>
<path d="M22.409 1.94398V10.3442L28.9999 5.49793V2.91321C28.9999 0.515956 26.2087 -0.850651 24.2546 0.587034L22.409 1.94398Z" fill="#FBBC04"/>
<path d="M0 5.49798L3.03129 7.72698L6.59093 10.3442V1.94403L4.74535 0.587085C2.78785 -0.850711 0 0.516006 0 2.91315V5.49787V5.49798Z" fill="#C5221F"/>
</g>
<defs>
<clipPath id="clip0_360_3437">
<rect width="28.75" height="21.25" fill="white" transform="scale(1.0087)"/>
</clipPath>
</defs>
</svg>
