<svg width="14" height="14" viewBox="0 0 14 14" fill="none" xmlns="http://www.w3.org/2000/svg">
<g clip-path="url(#clip0_360_9953)">
<path d="M0.683416 13.9998C0.548196 13.9999 0.416005 13.9598 0.303565 13.8847C0.191125 13.8096 0.103488 13.7028 0.0517378 13.5779C-1.2347e-05 13.4529 -0.01355 13.3155 0.0128372 13.1829C0.0392243 13.0502 0.104351 12.9284 0.199979 12.8328L12.8328 0.200002C12.961 0.0717866 13.1349 -0.000244141 13.3162 -0.000244141C13.4976 -0.000244141 13.6715 0.0717866 13.7997 0.200002C13.9279 0.328218 13.9999 0.502115 13.9999 0.68344C13.9999 0.864764 13.9279 1.03866 13.7997 1.16688L1.16685 13.7997C1.10343 13.8632 1.02807 13.9136 0.945104 13.948C0.862141 13.9823 0.773209 14 0.683416 13.9998Z" fill="#FF3C3C"/>
<path d="M13.3163 13.9998C13.2265 14 13.1375 13.9823 13.0546 13.948C12.9716 13.9136 12.8962 13.8632 12.8328 13.7997L0.200002 1.16688C0.0717866 1.03866 -0.000244141 0.864764 -0.000244141 0.68344C-0.000244141 0.502115 0.0717866 0.328218 0.200002 0.200002C0.328218 0.0717866 0.502116 -0.000244141 0.68344 -0.000244141C0.864764 -0.000244141 1.03866 0.0717866 1.16688 0.200002L13.7997 12.8328C13.8953 12.9284 13.9604 13.0502 13.9868 13.1829C14.0132 13.3155 13.9997 13.4529 13.9479 13.5779C13.8962 13.7028 13.8085 13.8096 13.6961 13.8847C13.5837 13.9598 13.4515 13.9999 13.3163 13.9998Z" fill="#FF3C3C"/>
</g>
<defs>
<clipPath id="clip0_360_9953">
<rect width="14" height="14" fill="white"/>
</clipPath>
</defs>
</svg>
