<svg width="30" height="30" viewBox="0 0 30 30" fill="none" xmlns="http://www.w3.org/2000/svg">
<path d="M21.4246 9.58618H8.57715C8.11121 9.58618 7.7334 9.96399 7.7334 10.4299C7.7334 10.8959 8.11121 11.2737 8.57715 11.2737H21.4237C21.8896 11.2737 22.2675 10.8959 22.2675 10.4299C22.2675 9.96399 21.8906 9.58618 21.4246 9.58618Z" fill="#F98A17"/>
<path d="M18.6816 13.7842H11.3203C10.8544 13.7842 10.4766 14.162 10.4766 14.6279C10.4766 15.0939 10.8544 15.4717 11.3203 15.4717H18.6816C19.1475 15.4717 19.5253 15.0939 19.5253 14.6279C19.5253 14.162 19.1475 13.7842 18.6816 13.7842Z" fill="#F98A17"/>
<path d="M24.3755 1.46973H5.62549C3.09236 1.46973 1.03174 3.53035 1.03174 6.06348V18.9925C1.03174 21.5257 3.09236 23.5863 5.62549 23.5863H9.27143L9.17299 26.6885C9.15049 27.3794 9.51705 28.0075 10.1311 28.3272C10.3927 28.4632 10.6749 28.5297 10.9552 28.5297C11.3311 28.5297 11.7052 28.4088 12.023 28.1697L18.1224 23.5863H24.3755C26.9086 23.5863 28.9692 21.5257 28.9692 18.9925V6.06348C28.9692 3.53129 26.9086 1.46973 24.3755 1.46973ZM27.2817 18.9925C27.2817 20.5947 25.9777 21.8988 24.3755 21.8988H17.8392C17.6564 21.8988 17.4783 21.9578 17.3321 22.0685L11.0077 26.8216C10.9917 26.8319 10.9608 26.8572 10.9092 26.83C10.8567 26.8028 10.8577 26.7635 10.8586 26.7438L10.9861 22.7707C10.9936 22.5419 10.9083 22.3207 10.7489 22.1566C10.5896 21.9925 10.3721 21.8997 10.1433 21.8997H5.62549C4.0233 21.8997 2.71924 20.5957 2.71924 18.9935V6.06348C2.71924 4.46129 4.0233 3.15723 5.62549 3.15723H24.3755C25.9777 3.15723 27.2817 4.46129 27.2817 6.06348V18.9925Z" fill="#6621BA"/>
</svg>
