<svg width="22" height="22" viewBox="0 0 22 22" fill="none" xmlns="http://www.w3.org/2000/svg">
<g clip-path="url(#clip0_509_2199)">
<path d="M7.37602 16.8034C8.44546 16.2894 8.89572 15.0057 8.3817 13.9363C7.86769 12.8669 6.58406 12.4166 5.51463 12.9306C4.44519 13.4446 3.99494 14.7283 4.50895 15.7977C5.02296 16.8671 6.30659 17.3174 7.37602 16.8034Z" stroke="#343A40" stroke-miterlimit="22.9256" stroke-linecap="round" stroke-linejoin="round"/>
<path d="M6.44495 14.8672H6.44517" stroke="#343A40" stroke-miterlimit="22.9256" stroke-linecap="round" stroke-linejoin="round"/>
<path d="M18.005 16.8881C19.1207 16.4842 19.6978 15.2523 19.2939 14.1366C18.89 13.0209 17.6581 12.4439 16.5424 12.8478C15.4267 13.2517 14.8496 14.4836 15.2535 15.5993C15.6574 16.715 16.8893 17.292 18.005 16.8881Z" stroke="#343A40" stroke-miterlimit="22.9256" stroke-linecap="round" stroke-linejoin="round"/>
<path d="M17.2734 14.8672H17.2737" stroke="#343A40" stroke-miterlimit="22.9256" stroke-linecap="round" stroke-linejoin="round"/>
<path d="M17.0591 6.48828V9.71092C18.4196 9.71092 19.3504 9.71092 20.7109 9.71092C21.2176 9.71092 21.5703 10.0743 21.5703 10.5703V15.2968H19.4435M20.2324 9.65046L18.7777 6.27343H15.3403M15.1252 13.1484V4.98438H3.00793L2.14856 15.2968H4.27533M18.8452 13.3632H21.3555M15.1037 15.2968H8.61516M2.36336 13.3632H4.86293M8.02756 13.3632H15.7021" stroke="#343A40" stroke-miterlimit="22.9256" stroke-linecap="round" stroke-linejoin="round"/>
<path d="M3.39834 11.2686H0.429688" stroke="#343A40" stroke-miterlimit="22.9256" stroke-linecap="round" stroke-linejoin="round"/>
<path d="M6.40615 9.17383H1.71875" stroke="#343A40" stroke-miterlimit="22.9256" stroke-linecap="round" stroke-linejoin="round"/>
<path d="M4.47256 7.0791H1.07422" stroke="#343A40" stroke-miterlimit="22.9256" stroke-linecap="round" stroke-linejoin="round"/>
<path d="M7.99786 7.0791H6.40613" stroke="#343A40" stroke-miterlimit="22.9256" stroke-linecap="round" stroke-linejoin="round"/>
<path d="M9.13559 9.17383H8.33972" stroke="#343A40" stroke-miterlimit="22.9256" stroke-linecap="round" stroke-linejoin="round"/>
</g>
<defs>
<clipPath id="clip0_509_2199">
<rect width="22" height="22" fill="white"/>
</clipPath>
</defs>
</svg>
