<svg width="16" height="16" viewBox="0 0 16 16" fill="none" xmlns="http://www.w3.org/2000/svg">
<g clip-path="url(#clip0_360_9377)">
<path d="M15.832 7.26875C15.6676 6.92928 15.3935 6.6552 15.0541 6.49082L2.407 0.370973C1.57387 -0.03266 0.571319 0.315547 0.167686 1.14868C-0.0379446 1.57316 -0.0552305 2.06467 0.120117 2.50255L2.31929 7.99941L0.120117 13.4968C-0.222426 14.3592 0.198984 15.336 1.06135 15.6785C1.25634 15.7559 1.46413 15.7962 1.67395 15.7971C1.92781 15.7971 2.17839 15.7398 2.407 15.6295L15.054 9.508C15.8872 9.10446 16.2355 8.10191 15.832 7.26875ZM1.92034 14.6221C1.64259 14.7566 1.30843 14.6404 1.17397 14.3627C1.10545 14.2212 1.09975 14.0573 1.15822 13.9114L3.29929 8.55812H14.4523L1.92034 14.6221ZM3.29932 7.44066L1.15826 2.08739C1.06914 1.874 1.12447 1.62758 1.29625 1.47279C1.46253 1.31076 1.7136 1.27276 1.92034 1.37837L14.4523 7.44066H3.29932Z" fill="#3580FF"/>
</g>
<defs>
<clipPath id="clip0_360_9377">
<rect width="16" height="16" fill="white"/>
</clipPath>
</defs>
</svg>
